<?xml version="1.0" encoding="UTF-8" standalone="no"?>
<!-- Created with Inkscape (http://www.inkscape.org/) -->

<svg
   xmlns:dc="http://purl.org/dc/elements/1.1/"
   xmlns:cc="http://creativecommons.org/ns#"
   xmlns:rdf="http://www.w3.org/1999/02/22-rdf-syntax-ns#"
   xmlns:svg="http://www.w3.org/2000/svg"
   xmlns="http://www.w3.org/2000/svg"
   version="1.1"
   width="390"
   height="480"
   id="svg4228">
  <metadata
     id="metadata8">
    <rdf:RDF>
      <cc:Work
         rdf:about="">
        <dc:format>image/svg+xml</dc:format>
        <dc:type
           rdf:resource="http://purl.org/dc/dcmitype/StillImage" />
        <dc:title></dc:title>
      </cc:Work>
    </rdf:RDF>
  </metadata>
  <defs
     id="defs4232" />
  <path
     d="m 0.77916738,0.77916583 c 129.48837262,0 258.97673262,0 388.46510262,0 C 389.23407,115.36675 370.10546,349.67693 194.90053,479.06432 21.48865,349.61867 0.86023307,115.39093 0.77916738,0.77916583 z"
     id="path4240-0-1"
     style="fill:#2a8cff;fill-opacity:1;stroke:#828282;stroke-width:1.49437165;stroke-miterlimit:4;stroke-opacity:1;stroke-dasharray:none" />
  <path
     d="m 101.71777,212.8293 0,-51.06216 35.98424,0.0979 0,-51.01578 34.08752,0.0486 0,-51.015803 46.25348,-0.04773 -0.0265,51.012103 34.20171,0 0.0265,50.90336 35.8261,-0.002 -0.0492,51.24099 37.37198,-0.0979 -0.0981,51.20073 21.94197,0.0285 C 313.95572,358.59121 261.63565,428.58046 194.90426,478.15368 107.71468,413.16739 65.789284,326.36998 43.379716,263.99916 l 20.913853,-0.0186 0.145311,-51.20032 z"
     id="path3599"
     style="fill:#f2f2f2;fill-opacity:1;stroke:none" />
</svg>
