<?xml version="1.0" encoding="UTF-8" standalone="no"?>
<!-- Created with Inkscape (http://www.inkscape.org/) -->
<svg
   xmlns:svg="http://www.w3.org/2000/svg"
   xmlns="http://www.w3.org/2000/svg"
   version="1.0"
   width="200"
   height="232.15616"
   id="svg6673">
  <defs
     id="defs6675" />
  <g
     transform="translate(-173.83752,-310.21542)"
     id="layer1">
    <path
       d="M 274.2629,542.37159 C 330.1865,501.02098 374.6896,411.17052 374.6896,309.22636 L 173.83752,309.22636 C 173.83752,411.17062 218.3393,501.02098 274.2629,542.37159"
       id="path6275"
       style="fill:#d2dadf;fill-opacity:1;fill-rule:nonzero;stroke:none" />
    <path
       d="M 266.47011,342.49968 C 266.47011,342.49968 273.3402,342.31187 275.84868,342.31187 C 276.9243,342.31187 278.89432,341.50548 278.89432,339.71409 C 278.89432,337.50373 277.34195,335.95137 276.29653,335.95137 C 274.77437,335.95137 266.08399,335.95137 263.12766,335.95137"
       id="path6293"
       style="fill:#000000;fill-opacity:1;fill-rule:nonzero;stroke:none" />
    <path
       d="M 221.68846,338.29961 C 224.37555,339.28593 224.06889,337.65345 224.69536,336.30991 C 225.32314,334.96504 225.41244,335.59283 225.94959,335.77143 C 226.48675,335.95137 226.84529,337.38422 227.65169,337.38422 C 228.45808,337.38422 229.71232,335.68212 229.80163,336.12997 C 229.89093,336.57782 231.32511,339.44485 232.13149,340.25124 C 232.93788,341.05764 233.41069,341.12986 233.41069,341.12986 C 233.13357,341.88373 233.95835,342.88056 234.14616,343.73422 C 234.46793,345.19729 233.20959,346.57016 233.78236,347.95005 C 234.53255,349.75737 236.91845,350.60239 238.54979,351.69832 C 238.95405,351.9699 239.67138,352.45481 239.86051,353.14957 C 240.23481,352.99197 240.57628,353.28878 240.74307,353.44769 C 242.33878,354.98036 243.88064,357.33125 246.22364,356.21359 C 247.04054,357.52694 246.65537,358.4964 248.149,360.16018 C 250.00435,360.1432 250.52823,358.88672 250.70083,357.31417 C 254.11814,357.33912 256.85776,355.84716 258.54804,353.04712 C 258.8002,352.62816 258.61896,351.82966 259.22966,351.62346 C 261.95484,350.70018 264.46858,349.47352 267.42359,349.04669 C 268.00146,348.96395 268.07501,347.96319 268.63843,347.81346 C 270.19212,347.39976 271.73924,348.13392 273.31787,347.887 C 273.49123,347.86074 273.96272,347.6204 273.76309,347.27893 C 273.38091,346.62358 272.63362,346.45284 271.91523,346.55002 C 271.97958,346.3215 271.85875,346.15996 271.67357,346.09561 C 269.38967,345.2971 266.98756,346.7247 264.92168,345.8881 C 264.26501,345.6228 262.8663,342.77943 263.63329,342.77943 C 264.91905,342.77943 266.44253,343.20757 266.44253,342.31187 C 266.44253,342.31187 273.3402,342.31187 275.84868,342.31187 C 276.9243,342.31187 278.89432,341.50548 278.89432,339.71409 C 278.89432,337.50373 277.34195,335.9528 276.29653,335.95137 L 262.92146,335.93298 C 262.66536,335.07142 262.48412,334.1731 261.94696,333.39954 C 261.58054,332.87158 261.13794,332.31603 260.3657,332.40797 C 260.62969,330.8464 260.04262,329.04975 260.99479,327.81652 C 261.34545,327.36342 262.30682,327.90715 263.01471,328.30115 C 263.65431,328.65575 264.38978,328.40885 265.10029,327.95968 C 267.01777,326.74878 269.22419,326.46773 270.89213,325.00861 C 271.81016,324.20484 272.02554,322.84947 273.11825,322.06935 C 274.12951,321.34701 275.12766,322.51851 276.12974,322.18623 C 276.77568,321.18524 277.31892,320.88918 278.47536,320.79672 C 281.05739,319.14322 283.67357,318.9541 286.55504,318.3933 C 289.57966,317.80493 292.37314,318.83984 295.1942,319.6423 C 296.55613,320.02973 296.98953,322.23876 298.36066,322.50538 C 299.87626,322.80088 301.42337,321.43106 302.96917,322.3701 C 304.9891,323.59676 307.4214,324.40315 308.27507,326.5833 C 309.4295,329.53569 306.0135,331.50307 304.20634,333.58604 C 304.90898,336.34668 305.70093,338.91294 307.15479,341.43193 C 304.61017,344.20537 307.63721,349.10967 306.94072,352.88164 C 304.73044,353.44743 304.81127,356.1902 304.46245,358.1928 C 303.47593,363.85623 302.95956,369.81558 299.33253,375.93078 C 298.18586,374.05855 297.71675,376.06853 297.27715,377.31767 C 296.20415,378.25408 296.3263,379.62126 295.45029,380.66012 C 294.68593,381.56502 293.7502,382.82236 293.91631,384.24949 C 294.09218,385.76027 294.78152,387.09651 295.55142,388.36944 C 297.66867,391.87002 298.0163,396.17727 300.28733,399.52102 C 303.26329,403.90265 306.58002,407.23066 309.51618,413.18896 C 310.8477,414.92089 312.14193,416.67675 313.2592,418.50142 C 315.43113,420.55539 318.36006,423.16765 318.91445,426.18709 C 318.8585,427.74614 313.03868,425.31904 310.80588,423.91896 C 314.2576,427.7957 318.67963,431.08895 319.99796,436.35104 C 319.60264,436.26699 317.84539,435.11125 317.87691,435.17297 C 319.29006,437.8824 321.9719,442.19804 322.88599,445.07162 C 323.02915,445.51947 320.22517,444.19169 320.41034,444.36505 C 322.12031,445.95681 323.73179,449.11803 324.55263,450.58241 C 324.88621,451.17867 325.63482,452.15054 325.08059,452.75598 C 324.82449,453.03704 321.9417,450.23569 321.47152,450.434 C 322.44055,453.46463 326.88419,458.29592 324.71154,459.68517 C 323.86574,459.41199 326.09317,461.87977 325.57046,462.69536 C 325.41418,462.94095 323.41921,460.36417 323.41527,460.80414 C 323.40345,462.47208 326.09055,466.52899 325.16858,467.74515 C 324.44755,468.69863 319.73791,462.9948 320.41034,464.92935 C 320.88183,466.28471 321.96403,469.18194 321.88129,469.18325 C 315.12546,469.33692 308.37226,468.38212 301.61774,470.30222 C 300.09821,470.73431 299.4481,471.85984 298.29368,472.86062 C 297.9509,473.15742 297.41242,473.19157 297.19967,472.84485 C 296.87658,472.31821 297.4978,471.29248 296.86608,471.14933 C 296.02685,470.95758 295.23228,471.02981 294.46792,471.26753 C 295.37807,470.06056 294.66229,468.80633 293.40805,468.44779 C 294.30375,467.37216 292.69096,465.0436 291.61665,464.68506 C 290.54103,464.32652 291.55755,463.89575 291.61665,463.25221 C 291.65737,462.79517 292.40203,461.87845 290.97706,461.05499 C 289.8095,460.37861 290.38212,460.10676 288.22166,459.88743 C 293.82111,458.81964 299.4917,458.65991 305.14932,459.21368 C 306.22888,457.87145 304.17351,456.08531 303.1793,455.05171 C 302.94947,454.81137 302.2731,455.08717 301.87517,454.91249 C 300.93871,451.82363 299.86074,451.18875 298.66799,449.78521 C 298.14265,449.77076 298.18993,450.7794 297.9601,451.61206 C 297.78016,452.26742 298.10194,452.81377 297.58579,453.03704 C 297.09723,453.2498 296.56795,453.02653 296.21072,452.5997 C 295.29006,451.49781 293.85852,448.78707 292.59772,448.31295 C 291.3356,447.83752 291.70859,450.25276 291.47875,451.43608 C 289.35376,450.68879 287.8247,446.71677 286.14002,445.4131 C 284.83145,444.40047 286.68661,448.52488 286.29368,449.07863 C 280.3356,445.13631 278.14199,437.75558 275.45074,431.93165 C 274.06254,432.0446 272.18577,433.66526 271.78652,435.20056 C 271.46738,436.4259 271.98089,438.17133 271.06943,438.70455 C 269.43826,439.65804 268.07633,441.24981 266.42021,442.09822 C 265.99337,442.31624 265.18303,439.28898 264.84551,440.06254 C 264.33461,441.23142 264.42918,444.74197 264.22823,446.02905 C 263.93405,447.92026 263.91172,449.26381 263.60703,451.14189 C 262.69616,450.48524 261.60392,450.18767 260.8385,451.02369 C 258.41278,453.67312 258.41651,457.94946 256.70936,461.24805 C 256.37708,461.71035 256.09472,461.00771 255.65212,460.62815 C 254.64347,462.16739 255.20952,463.93121 254.94555,465.57814 C 248.68883,463.46711 243.25689,464.01757 237.17703,464.79684 C 235.73486,464.98168 234.43901,465.88339 233.07972,466.63537 C 232.81968,466.51586 232.51367,465.42973 232.20635,465.32203 C 232.20635,465.32203 232.49003,464.77569 232.13149,463.70006 C 231.77295,462.62443 231.2358,462.17659 230.69864,462.17659 C 230.16017,462.17659 229.52845,460.69382 229.52845,460.69382 C 229.52845,460.69382 230.16017,459.84802 229.62301,458.95102 C 229.08585,458.05663 228.36877,457.51816 227.47307,457.15961 C 226.57738,456.80239 227.11453,456.98101 227.47307,455.90669 C 227.83161,454.83106 226.75073,451.50568 225.36516,451.42163 C 226.35284,450.50545 227.45284,449.86792 228.20197,450.59948 C 229.78587,452.14621 232.35082,451.96141 234.19737,451.9115 C 236.6901,451.84584 239.33385,452.92803 241.33407,452.26085 C 242.13653,451.99294 241.42601,449.77602 240.52243,449.14298 C 240.24532,448.94993 239.53348,449.12723 239.52035,449.05499 C 238.95956,445.99491 241.7701,442.71681 242.27705,439.76836 C 242.40707,439.00793 239.89597,440.51696 239.75412,439.85897 C 238.8753,436.84878 242.06606,434.31174 241.80556,431.63746 C 241.5823,431.48117 240.4108,432.58044 240.09691,432.58044 C 240.67609,429.81454 242.52265,425.91786 243.39602,423.21106 C 243.70597,422.25101 241.44045,423.80207 241.13182,423.52232 C 240.53031,422.97203 241.58886,422.35083 241.89881,421.82943 C 245.21106,416.27924 249.03419,411.77318 253.05039,406.64589 C 253.4943,406.07984 253.07403,404.9333 253.52056,404.95956 C 257.18873,405.17626 260.74,404.41846 264.37007,404.22409 C 264.7759,404.20308 264.68528,403.60288 264.54476,403.398 C 263.61097,402.05313 262.97663,400.88557 263.19464,399.34634 C 263.42316,399.41069 263.59783,399.29249 263.64249,399.106 C 263.71472,398.79868 263.77382,398.38892 263.6136,398.21818 C 262.39876,396.92191 261.85635,395.38924 261.14976,393.89072 C 260.55877,392.63648 261.01187,390.95015 259.82198,390.01111 C 259.14167,389.47527 258.40488,390.38278 257.87561,390.76628 C 254.97837,392.86763 252.00366,394.34383 249.52538,396.75381 C 249.52801,396.12077 249.02288,395.40864 248.58109,395.81083 C 246.05924,398.10661 243.26599,400.08575 240.56708,402.17397 C 240.58092,401.31467 240.11913,400.9267 239.41003,401.27695 C 236.80901,402.56172 234.27093,403.87999 231.61141,405.0029 C 231.50634,404.35017 232.14068,403.43871 231.38946,403.50569 C 229.602,403.66854 228.03649,404.8755 226.35541,405.52955 C 225.09329,406.02205 223.66832,406.74833 222.20132,406.3517 C 221.37786,406.13107 220.95496,405.11322 220.57015,404.57344 C 219.56938,403.17079 218.20351,402.07809 217.46935,400.39176 C 216.83238,398.93001 215.53086,397.66658 214.54455,396.19038 C 214.04153,395.43652 215.20384,394.42787 214.8256,393.47439 C 214.63779,393.0029 214.37512,392.67325 214.05992,392.44474 C 214.80064,392.5892 215.42316,392.63779 215.73705,391.85241 C 216.09559,390.95672 215.2892,390.06102 214.93066,389.61317 C 214.57212,389.16532 216.1849,388.98539 216.63275,389.16532 C 217.0806,389.34394 216.9913,390.33025 217.9763,390.33025 C 218.96262,390.33025 218.872,388.98539 219.32116,387.73115 C 219.67839,387.64184 220.73957,388.77789 221.64971,388.35893 C 222.81465,387.82046 222.72534,387.73115 223.20472,385.3041 C 223.2034,385.70598 223.50809,386.17878 223.62892,386.52681 C 224.2961,388.44955 226.12011,390.05356 226.79933,392.08225 C 227.2104,393.31007 227.18815,394.50019 228.30573,394.73783 C 231.94798,393.95013 233.47742,389.24241 234.95255,386.06189 C 235.54224,384.71046 235.76288,383.06485 236.47734,381.75151 C 237.39405,380.06518 238.95956,378.89368 240.52768,377.61317 C 240.6472,377.51599 240.64851,377.10622 240.52768,377.00116 C 236.75314,373.66264 232.52943,371.3748 229.09899,367.68694 C 228.93745,367.51358 229.14233,366.7978 229.08848,366.64021 C 228.21248,364.01878 225.89181,362.18009 224.54038,359.74911 C 224.99086,359.86336 225.40062,359.55604 225.39799,359.27762 C 225.37041,356.4408 222.79889,354.25539 222.82647,351.50133 C 222.82779,351.33453 223.89028,352.16193 223.94544,351.48951 C 224.16083,348.851 223.2034,346.33069 222.50076,343.76312 C 222.08312,342.23702 221.16116,340.87011 221.28987,339.24654 C 221.32436,338.81128 221.49507,338.64011 221.68846,338.29961 z"
       id="path6291"
       style="fill:#0060a9;fill-opacity:1;stroke:#000000;stroke-width:0.86023843;stroke-linecap:butt;stroke-linejoin:miter;stroke-miterlimit:4;stroke-dasharray:none;stroke-opacity:1" />
    <path
       d="M 220.64109,328.90923 C 221.7456,329.08307 222.92164,329.33424 223.75204,330.14061 C 224.49443,330.74109 224.75979,331.71126 225.01391,332.589 C 225.21315,333.53311 225.53106,334.46284 225.564,335.43397 C 225.58978,336.07814 225.37664,336.76418 224.83835,337.15649 C 224.34926,337.53342 223.84423,337.92212 223.25623,338.12838 C 222.856,338.23971 222.40156,337.92968 222.18625,337.63464 C 222.44294,337.40627 222.49641,337.03834 222.48393,336.69856 C 222.39176,335.20802 222.81489,333.6901 222.40556,332.22157 C 222.16652,331.25452 221.45556,330.50401 220.68372,329.91748 C 220.37295,329.68922 219.6789,328.91282 220.41125,328.81333 C 220.53279,328.82674 220.64551,328.88108 220.74746,328.946"
       id="path6343"
       style="fill:#ffd27c;fill-opacity:1;stroke:#231f20;stroke-width:0.86023843;stroke-linecap:butt;stroke-linejoin:miter;stroke-miterlimit:4;stroke-dasharray:none;stroke-opacity:1" />
    <path
       d="M 280.73301,464.56949 C 281.14689,464.04695 281.60705,463.55615 282.10099,463.10859 C 283.2848,462.16946 284.57152,461.35348 285.92556,460.6827 C 287.27977,460.08375 288.80518,460.21395 290.23764,460.37074 C 290.69461,460.56313 290.98864,461.00445 291.20886,461.43823 C 291.45684,462.00985 291.56186,462.64623 291.62367,463.25331 C 291.74517,463.01718 291.73653,462.5883 291.39396,462.91249 C 291.0248,463.15272 290.77702,463.70201 290.26607,463.61893 C 288.57989,463.44052 287.02566,462.58636 285.31497,462.5688 C 284.41835,462.73015 283.60556,463.1814 282.78088,463.5487 C 282.09238,463.87708 281.41433,464.22678 280.73301,464.56949 z"
       id="path6299"
       style="fill:#ffd27c;fill-opacity:1;stroke:#231f20;stroke-width:0.86023843;stroke-linecap:butt;stroke-linejoin:miter;stroke-miterlimit:4;stroke-dasharray:none;stroke-opacity:1" />
    <path
       d="M 282.22758,469.76769 C 282.16191,469.31196 282.26172,468.86543 282.50732,468.48456 C 282.79625,468.03671 284.32892,467.09767 284.80172,466.93482 C 285.50962,466.69185 286.08092,466.28208 286.71789,465.90384 C 287.14473,465.65036 287.49276,465.27738 287.92486,465.07644 C 289.15939,464.49988 289.45489,464.08749 290.77086,464.28186 C 291.91347,464.45129 294.0043,466.62093 293.4317,467.79636 C 293.08497,468.50951 292.19847,468.60407 291.48138,468.3703 C 290.06822,467.90931 288.72205,467.12131 287.19463,467.26577 C 285.92464,467.38792 284.11616,469.2765 282.93809,469.69809 C 282.46004,469.86751 282.26566,469.41572 282.29193,468.9902"
       id="path6303"
       style="fill:#ffd27c;fill-opacity:1;stroke:#231f20;stroke-width:0.86023843;stroke-linecap:butt;stroke-linejoin:miter;stroke-miterlimit:4;stroke-dasharray:none;stroke-opacity:1" />
    <path
       d="M 289.35508,470.18796 C 290.73277,469.43673 292.58853,468.49375 293.40805,468.44779 C 293.40805,468.44779 294.01219,469.23448 294.23283,469.40652 C 294.66623,469.74405 295.16136,470.91686 294.80282,471.30956 C 293.96754,472.22233 293.12174,472.08049 291.73091,472.40882 C 290.89957,472.60583 287.77645,474.38146 287.03046,474.69798 C 286.99632,474.71242 287.10927,474.49835 287.09351,474.35257 C 287.01471,473.62235 286.92934,472.85142 287.18019,472.15272 C 287.72391,471.85722 288.32279,470.74876 289.35508,470.18796"
       id="path6307"
       style="fill:#ffd27c;fill-opacity:1;stroke:#231f20;stroke-width:0.86023843;stroke-linecap:butt;stroke-linejoin:miter;stroke-miterlimit:4;stroke-dasharray:none;stroke-opacity:1" />
    <path
       d="M 218.7157,456.81946 C 218.5887,457.23551 217.80992,457.0886 217.97534,456.63312 C 217.99919,456.04636 217.98895,455.44585 218.20231,454.88822 C 218.35288,454.32703 218.41339,453.74484 218.58701,453.18939 C 220.25621,452.90167 221.97483,452.7895 223.56827,452.17067 C 224.28074,451.9393 225.01213,451.64936 225.77329,451.68611 C 226.32225,451.80357 226.31784,452.52971 226.63374,452.90526 C 226.98363,453.57748 227.40686,454.23655 227.57209,454.98431 C 227.62719,455.51426 227.39968,456.05687 227.05108,456.44587 C 226.58682,456.77302 226.19567,456.21715 225.7671,456.10041 C 224.67072,455.65344 223.55446,455.25033 222.42017,454.91146 C 221.65816,454.77074 220.82593,454.7298 220.10401,455.04994 C 219.7703,455.35117 219.35783,455.59232 219.16986,456.0218 C 219.01277,456.28432 218.84951,456.54391 218.7157,456.81946 z"
       id="path6311"
       style="fill:#ffd27c;fill-opacity:1;stroke:#231f20;stroke-width:0.86023843;stroke-linecap:butt;stroke-linejoin:miter;stroke-miterlimit:4;stroke-dasharray:none;stroke-opacity:1" />
    <path
       d="M 220.6844,461.38596 C 220.5853,461.00408 220.6743,460.62933 220.71492,460.2472 C 220.74087,459.88617 220.86819,459.51867 221.09282,459.23331 C 221.37232,458.96607 221.78283,458.9157 222.12478,458.75809 C 222.60946,458.60127 223.09188,458.37461 223.60922,458.38234 C 224.51139,458.19014 225.41003,457.9651 226.25692,457.59171 C 226.79641,457.35226 227.4994,457.2863 227.96327,457.71937 C 228.57256,458.18131 229.13812,458.75037 229.38659,459.49144 C 229.63354,459.91847 229.79155,460.45125 229.56391,460.92234 C 228.92206,460.98035 228.25855,460.85426 227.67776,460.57927 C 227.34856,460.32581 226.95967,460.19719 226.5641,460.09003 C 225.88329,459.85217 225.18044,459.57283 224.4458,459.63838 C 224.01642,459.83112 223.59412,460.05113 223.14742,460.20921 C 222.42138,460.48928 221.66589,460.80064 221.14786,461.40696 C 221.00589,461.54878 220.66213,461.78169 220.6844,461.38596 z"
       id="path6315"
       style="fill:#ffd27c;fill-opacity:1;stroke:#231f20;stroke-width:0.86023843;stroke-linecap:butt;stroke-linejoin:miter;stroke-miterlimit:4;stroke-dasharray:none;stroke-opacity:1" />
    <path
       d="M 224.38673,467.79374 C 224.13194,467.55529 224.2182,467.03109 224.13495,466.67577 C 223.98655,466.21238 223.93651,465.7275 224.12324,465.26756 C 224.21584,464.88595 224.21129,464.36857 224.61787,464.17549 C 225.81513,463.77327 227.09052,463.67838 228.27924,463.24567 C 228.98195,463.03464 229.66449,462.76421 230.3625,462.54055 C 230.86322,462.37659 231.39196,462.48689 231.89624,462.56086 C 232.25687,462.82409 232.35724,463.32027 232.57482,463.69585 C 232.74323,464.12477 232.87904,464.56705 232.9755,465.01601 C 233.23386,465.32766 233.20422,466.09157 232.66701,466.04289 C 232.20274,465.94579 231.75062,465.78811 231.27675,465.72717 C 230.6832,465.59337 230.13011,465.23794 229.49884,465.30958 C 229.00526,465.39944 228.49452,465.32304 228.02925,465.5 C 227.01801,465.56097 226.23793,466.29741 225.54914,466.96562 C 225.28942,467.23679 224.93804,467.43064 224.7592,467.77092 C 224.17411,468.24216 224.52485,467.477 224.20811,467.33013"
       id="path6319"
       style="fill:#ffd27c;fill-opacity:1;stroke:#231f20;stroke-width:0.86023843;stroke-linecap:butt;stroke-linejoin:miter;stroke-miterlimit:4;stroke-dasharray:none;stroke-opacity:1" />
    <path
       d="M 219.71385,378.91469 C 220.02707,379.07679 220.37806,379.13761 220.67396,379.36535 C 221.48946,379.69438 222.38828,379.92541 223.01127,380.59092 C 223.3514,380.89843 223.63175,381.30099 223.65468,381.77319 C 223.81316,382.64886 223.82413,383.5409 223.76045,384.42621 C 223.70905,385.31911 223.74037,386.25237 223.34727,387.08039 C 223.09099,387.71469 222.6134,388.41698 221.8646,388.45931 C 221.20207,388.41768 220.58212,387.86449 220.47802,387.20766 C 220.46795,386.77425 220.93714,386.5515 221.04647,386.15566 C 221.28504,385.56681 221.2976,384.90848 221.23427,384.28445 C 221.11186,383.66458 220.80775,383.09779 220.60233,382.50323 C 220.36081,381.86488 220.06365,381.24795 219.85791,380.597 C 219.56363,380.29086 219.7535,379.90359 219.743,379.54358 C 219.65862,379.29826 219.53748,378.95608 219.71385,378.91469 z"
       id="path6323"
       style="fill:#ffd27c;fill-opacity:1;stroke:#231f20;stroke-width:0.86023843;stroke-linecap:butt;stroke-linejoin:miter;stroke-miterlimit:4;stroke-dasharray:none;stroke-opacity:1" />
    <path
       d="M 212.96457,383.9172 C 214.05657,383.55881 215.23437,383.54875 216.35679,383.75935 C 216.97626,383.86834 217.61556,383.90583 218.21385,384.10786 C 218.7329,384.32701 219.01775,384.85648 219.29752,385.3146 C 219.46532,385.66828 219.66233,386.02295 219.74596,386.40605 C 219.7541,386.75661 219.99593,387.06573 219.93686,387.42773 C 219.84438,388.03203 219.67235,388.62335 219.51867,389.21496 C 219.42385,389.62269 219.15276,390.13186 218.6644,390.09084 C 218.24857,390.04524 217.88043,389.69131 217.88735,389.25966 C 217.80484,388.83967 217.83481,388.3655 217.60579,387.99283 C 217.40856,387.71076 217.36837,387.34813 217.20003,387.04726 C 216.69195,386.02557 215.6822,385.37159 214.67733,384.90258 C 214.11528,384.63293 213.51552,384.44859 212.94597,384.20156 C 212.77329,384.0891 212.85277,383.84457 213.07228,383.91721"
       id="path6327"
       style="fill:#ffd27c;fill-opacity:1;stroke:#231f20;stroke-width:0.86023843;stroke-linecap:butt;stroke-linejoin:miter;stroke-miterlimit:4;stroke-dasharray:none;stroke-opacity:1" />
    <path
       d="M 208.95888,390.61131 C 209.7178,390.15724 210.44877,389.6501 211.24154,389.25637 C 211.82764,389.03525 212.44436,388.90681 213.0327,388.69 C 213.45412,388.53541 213.95652,388.37424 214.368,388.64545 C 215.14808,389.1068 215.99756,389.62674 216.36643,390.49672 C 216.53223,390.934 216.5487,391.48051 216.26951,391.87401 C 215.89849,392.26854 215.27368,392.17413 214.82252,391.98504 C 214.0034,391.54129 213.18727,391.04076 212.25671,390.87004 C 211.80343,390.76189 211.33138,390.73115 210.87564,390.84154 C 210.36157,390.90026 209.84388,390.93131 209.33629,391.03631 C 209.12006,391.09267 208.65749,391.00667 208.88429,390.7055 L 208.91128,390.6668 L 208.9589,390.61131 L 208.95888,390.61131 z"
       id="path6331"
       style="fill:#ffd27c;fill-opacity:1;stroke:#231f20;stroke-width:0.86023843;stroke-linecap:butt;stroke-linejoin:miter;stroke-miterlimit:4;stroke-dasharray:none;stroke-opacity:1" />
    <path
       d="M 234.661,339.14147 C 235.6347,337.40924 236.19414,335.46549 236.45861,333.5033 C 236.63042,332.00391 236.34876,330.46124 235.73349,329.0895 C 235.46677,328.73938 235.20973,327.77198 234.69451,327.96595 C 234.56915,328.46848 234.6809,329.01521 234.54718,329.53379 C 234.45577,330.45999 234.29109,331.40156 233.87723,332.24194 C 233.40625,333.06538 232.78595,333.7957 232.03739,334.37989 C 231.44184,334.86362 230.79659,335.44404 230.70748,336.25231 C 230.86923,337.58816 231.27164,339.01392 232.32203,339.92802 C 232.74854,340.11169 233.05036,340.86101 233.45836,340.82309 C 233.84297,340.29833 234.16353,339.72876 234.5988,339.2426 L 234.66099,339.14147 L 234.661,339.14147 z"
       id="path6335"
       style="fill:#ffd27c;fill-opacity:1;stroke:#231f20;stroke-width:0.86023843;stroke-linecap:butt;stroke-linejoin:miter;stroke-miterlimit:4;stroke-dasharray:none;stroke-opacity:1" />
    <path
       d="M 227.23535,327.02852 C 227.64543,327.07527 227.99356,327.3864 228.39002,327.5144 C 229.13541,327.83005 229.85985,328.26912 230.31377,328.95886 C 230.60876,329.34087 230.85489,329.7813 230.84915,330.2796 C 230.88362,331.50306 231.07259,332.77567 230.6218,333.95082 C 230.48861,334.44496 230.31234,334.93116 229.998,335.34246 C 229.71188,335.80323 229.36353,336.26298 228.8353,336.45753 C 228.50796,336.58067 228.1436,336.57982 227.93011,336.87858 C 227.63146,336.60677 227.17347,336.47039 227.05555,336.03863 C 226.81033,335.23065 227.05964,334.38397 227.20729,333.58094 C 227.38491,332.85706 227.53603,332.12379 227.75856,331.41316 C 227.80308,330.34751 227.95332,329.20312 227.43988,328.21841 C 227.28553,327.82139 226.86657,327.56057 226.80791,327.12708 C 226.77629,326.78476 227.15114,327.09144 227.23535,327.02852 z"
       id="path6339"
       style="fill:#ffd27c;fill-opacity:1;stroke:#231f20;stroke-width:0.86023843;stroke-linecap:butt;stroke-linejoin:miter;stroke-miterlimit:4;stroke-dasharray:none;stroke-opacity:1" />
    <path
       d="M 254.26523,337.83207 C 255.73355,338.58724 257.28723,339.60639 258.93284,339.94654 C 259.23754,340.00958 259.68539,340.21052 259.98746,340.20002 C 261.15764,340.16194 261.9706,339.97412 263.21433,340.24336 C 264.54476,340.53098 263.82636,340.40359 265.13575,340.55199 C 265.36296,340.57826 265.60462,340.5717 265.79243,340.71354 C 265.99337,340.86588 278.15097,340.60847 278.20481,340.86063 C 278.29412,341.28879 277.55077,341.74714 277.0806,341.8916 C 276.03386,342.20943 265.43389,342.82801 264.38321,342.71376 C 262.88075,342.5509 262.19125,342.5706 260.9659,342.68749 C 260.90023,342.69405 260.60867,342.47867 260.54169,342.48392 C 259.05118,342.60027 257.59358,342.25325 256.15119,341.93888 C 255.33197,341.5651 254.92787,340.84737 254.48062,340.11071 C 254.12733,339.6274 253.78061,338.62007 253.89487,338.09605 C 253.90537,338.04352 254.24159,337.82025 254.26523,337.83207 z"
       id="path6347"
       style="fill:#ef3e42;fill-opacity:1;stroke:#000000;stroke-width:0.57393003;stroke-linecap:butt;stroke-linejoin:miter;stroke-miterlimit:4;stroke-dasharray:none;stroke-opacity:1" />
    <path
       d="M 277.05841,336.34065 L 274.33323,336.43914 L 275.74507,338.40916 L 277.05841,336.34065 z"
       id="path6351"
       style="fill:#c7c2a3;fill-opacity:1;stroke:none;stroke-width:0.21875;stroke-linecap:butt;stroke-linejoin:miter;stroke-miterlimit:4;stroke-dasharray:none;stroke-opacity:1" />
    <path
       d="M 269.7037,336.40631 L 271.01705,338.47482 L 272.33039,336.40631 L 269.7037,336.40631 z"
       id="path6355"
       style="fill:#c7c2a3;fill-opacity:1;stroke:none;stroke-width:0.21875;stroke-linecap:butt;stroke-linejoin:miter;stroke-miterlimit:4;stroke-dasharray:none;stroke-opacity:1" />
    <path
       d="M 263.44548,336.26263 C 263.67584,337.04401 264.08488,337.75378 264.43627,338.48393 C 264.60372,338.75791 264.65486,339.08313 264.81879,339.35758 C 264.97346,339.57923 265.09018,339.87855 265.37752,339.95479 C 265.48801,339.95654 265.63598,340.19666 265.5477,339.98886 C 265.3908,339.40369 265.60249,338.80859 265.80857,338.26458 C 266.01792,337.697 266.19434,337.08669 266.61145,336.63083 C 266.66754,336.52601 266.95604,336.4235 266.92392,336.41283 C 265.76496,336.35379 264.60628,336.27278 263.44548,336.26263 z"
       id="path6359"
       style="fill:#c7c2a3;fill-opacity:1;stroke:#000000;stroke-width:0.56211007;stroke-linecap:butt;stroke-linejoin:miter;stroke-miterlimit:4;stroke-dasharray:none;stroke-opacity:1" />
    <path
       d="M 266.95079,338.9484 C 266.63599,339.31296 266.58281,339.82936 266.58965,340.29321 C 266.63878,340.62421 266.68843,340.95775 266.76926,341.28314 C 266.83017,341.58968 267.09052,341.77971 267.25969,342.02389 C 267.41061,342.19658 267.56901,342.45416 267.83339,342.42084 C 268.15806,342.40293 268.47993,342.33062 268.80625,342.37224 C 269.75669,342.41413 270.73246,342.42373 271.6473,342.12538 C 271.74532,342.09661 271.98407,342.22444 271.75163,342.14971 C 271.21067,341.9414 270.7947,341.48947 270.23677,341.3203 C 269.72561,341.22877 269.25614,341 268.80229,340.75707 C 268.51632,340.63816 268.23655,340.49932 268.00545,340.28915 C 267.74394,340.08585 267.56395,339.7967 267.39499,339.51676 C 267.25791,339.24006 267.2276,338.92084 267.26731,338.61745 C 267.17817,338.75251 267.09212,338.86585 266.95079,338.9484 z"
       id="path6363"
       style="fill:#c7c2a3;fill-opacity:1;stroke:#000000;stroke-width:0.56211007;stroke-linecap:butt;stroke-linejoin:miter;stroke-miterlimit:4;stroke-dasharray:none;stroke-opacity:1" />
    <path
       d="M 277.8686,340.19214 L 275.13948,340.19214 L 276.50403,338.04483 L 277.8686,340.19214"
       id="path6379"
       style="fill:#c7c2a3;fill-opacity:1;fill-rule:nonzero;stroke:none" />
    <path
       d="M 274.41058,340.19214 L 271.68276,340.19214 L 273.04601,338.04483 L 274.41058,340.19214"
       id="path6381"
       style="fill:#c7c2a3;fill-opacity:1;fill-rule:nonzero;stroke:none" />
    <path
       d="M 276.20197,342.21863 L 273.28635,342.21863 L 274.78224,339.76137 L 276.20197,342.21863 z"
       id="path6367"
       style="fill:#c7c2a3;fill-opacity:1;stroke:#000000;stroke-width:0.56211007;stroke-linecap:butt;stroke-linejoin:miter;stroke-miterlimit:4;stroke-dasharray:none;stroke-opacity:1" />
    <path
       d="M 276.156,330.72164 C 275.89612,330.55852 275.77382,330.29087 275.85394,330.02688 C 275.98264,329.59873 276.02072,329.13249 276.37664,328.89347 C 276.55788,328.77264 277.06483,328.78577 277.28416,328.71354 C 277.61249,328.60454 278.01044,329.09703 278.29544,329.22705 C 279.71384,329.87191 281.31086,330.07285 282.84616,329.96252 C 281.01142,331.31002 278.3547,332.10169 276.156,330.72164 z"
       id="path6371"
       style="fill:#c7c2a3;fill-opacity:1;stroke:#000000;stroke-width:0.71708429;stroke-linecap:butt;stroke-linejoin:miter;stroke-miterlimit:4;stroke-dasharray:none;stroke-opacity:1" />
    <path
       d="M 277.46146,330.54565 C 277.74121,330.54565 277.96841,330.31844 277.96841,330.0387 C 277.96841,329.75896 277.74121,329.53175 277.46146,329.53175 C 277.18173,329.53175 276.95451,329.75896 276.95451,330.0387 C 276.95451,330.31844 277.18173,330.54565 277.46146,330.54565"
       id="path6377"
       style="fill:#000000;fill-opacity:1;fill-rule:nonzero;stroke:none" />
    <path
       d="M 305.68254,327.56962 C 305.92921,327.83974 305.75861,328.27035 305.56171,328.51785 C 304.40369,329.97357 301.45181,330.91101 301.65715,330.19367 C 302.21758,328.23584 301.60388,327.10941 300.29127,325.71912 C 299.88718,325.29112 299.93141,324.63955 300.23217,324.30334 C 300.61304,323.87781 301.33085,324.16119 301.87122,324.43599 C 303.4294,325.22837 304.57162,326.35309 305.68254,327.56962 z M 275.40083,328.60454 C 276.74438,327.08237 277.37215,326.99306 278.6264,327.88876 C 279.87932,328.78446 282.21051,327.97807 283.1942,327.17168 M 260.3657,332.40797 L 262.67981,332.45656 L 264.02335,331.8301"
       id="path6375"
       style="fill:none;stroke:#000000;stroke-width:0.71708429;stroke-linecap:butt;stroke-linejoin:miter;stroke-miterlimit:4;stroke-dasharray:none;stroke-opacity:1" />
    <path
       d="M 264.67271,403.84715 L 266.35322,407.17123 M 275.45074,431.93165 L 274.77437,429.2091 M 240.52768,377.61317 C 242.16542,375.45798 240.73125,375.45798 242.52265,372.59227 C 244.31405,369.72525 243.77689,369.90386 246.10676,366.6796 C 248.43663,363.45404 248.25669,362.37842 249.33101,361.12418 C 250.40663,359.86993 250.34632,358.86335 250.34632,358.86335"
       id="path6385"
       style="fill:none;stroke:#000000;stroke-width:0.86023843;stroke-linecap:butt;stroke-linejoin:miter;stroke-miterlimit:4;stroke-dasharray:none;stroke-opacity:1" />
    <path
       d="M 271.14955,340.19214 L 268.42042,340.19214 L 269.78498,338.04483 L 271.14955,340.19214"
       id="path6387"
       style="fill:#c7c2a3;fill-opacity:1;fill-rule:nonzero;stroke:none" />
  </g>
</svg>
