<?xml version="1.0" encoding="UTF-8" standalone="no"?>
<!-- Created with Inkscape (http://www.inkscape.org/) -->

<svg
 xmlns:dc="http://purl.org/dc/elements/1.1/"
 xmlns:cc="http://creativecommons.org/ns#"
 xmlns:rdf="http://www.w3.org/1999/02/22-rdf-syntax-ns#"
 xmlns:svg="http://www.w3.org/2000/svg"
 xmlns="http://www.w3.org/2000/svg"
 version="1.1"
 width="390"
 height="480"
 id="svg4228">
<metadata
 id="metadata14">
<rdf:RDF>
<cc:Work
 rdf:about="">
<dc:format>image/svg+xml</dc:format>
<dc:type
 rdf:resource="http://purl.org/dc/dcmitype/StillImage" />
<dc:title></dc:title>
</cc:Work>
</rdf:RDF>
</metadata>
<defs
 id="defs4232" />
<path
 d="M 0,0 C 130,0 260,0 390,0 390.002,197.56568 370.9582,337.27755 194.88837,479.99815 21.155446,337.38577 0.00226556,198.01562 0,0 z"
 id="path4240-0"
 style="fill:#008c31;fill-opacity:1;stroke:none" />
<path
 d="m 147.09558,41.987794 96.09054,0 -10.25424,101.142336 c -11.08015,0.79741 -25.52796,7.54928 -25.73196,22.51848 -0.81086,59.86489 23.62522,66.02551 22.70042,102.54067 -0.47528,18.83341 -18.17131,29.71665 -18.57292,30.2792 l 8.10383,159.70453 c -8.60285,7.39996 -14.17521,12.56219 -24.53832,20.82305 -7.02275,-5.80404 -16.80788,-13.96964 -24.59604,-21.06661 l 8.38521,-159.75938 c -1.28593,0 -19.49388,-15.20888 -18.96988,-31.12687 1.19058,-36.08272 22.11842,-40.84071 22.80205,-101.29575 0.17284,-15.48568 -12.64028,-20.84476 -25.53715,-22.48979 z"
 id="path2827"
 style="fill:#ececec;stroke:none" />
<path
 d="m 34.598516,41.987794 95.940694,0 -10.2367,101.065266 c -11.06473,0.79679 -25.490223,7.54352 -25.692248,22.5013 -0.809607,59.81927 25.194358,65.93191 22.665398,102.46252 -1.37857,19.90682 -18.084566,29.51685 -18.544253,30.25613 l 2.431833,86.31708 C 90.04618,370.98857 73.719259,346.90907 63.96791,329.14204 l 2.168618,-31.16725 c -1.284044,0 -19.465327,-15.19729 -18.940695,-31.10316 1.188528,-36.05688 22.084282,-40.80957 22.765272,-101.21854 0.172548,-15.47389 -12.619223,-20.82888 -25.497523,-22.47265 z"
 id="path2827-1"
 style="fill:#ececec;stroke:none" />
<path
 d="m 356.59963,42.168169 -95.94601,0 10.23882,101.067561 c 11.06348,0.79682 25.48955,7.54202 25.69325,22.50184 0.80963,59.82055 -25.19703,65.93334 -22.66628,102.46475 1.37862,19.90724 18.0853,29.51749 18.54498,30.25678 l -2.65758,85.63819 c 14.51629,-18.12984 28.17755,-39.27777 37.20496,-55.35275 l -1.95675,-30.57755 c 1.28569,0 19.47015,-15.20374 18.94695,-31.10996 -1.18878,-36.05768 -22.08517,-40.81046 -22.76779,-101.22077 -0.17258,-15.4742 12.6213,-20.83099 25.49876,-22.47314 z"
 id="path2827-1-8"
 style="fill:#ececec;stroke:none" />
<path
 d="m 55.376395,227.13896 278.716065,0.0944"
 id="path2873"
 style="fill:none;stroke:#008c31;stroke-width:3.29399991;stroke-linecap:butt;stroke-linejoin:miter;stroke-miterlimit:4;stroke-opacity:1;stroke-dasharray:none" />
<path
 d="m 27.5002,61.085964 a 1.8581215,1.81683 0 1 1 -3.716243,0 1.8581215,1.81683 0 1 1 3.716243,0 z"
 transform="matrix(3.3131123,0,0,3.2750269,-4.360705,-0.50703976)"
 id="path2875"
 style="fill:#008c31;fill-opacity:1;stroke:none" />
<path
 d="m 27.5002,61.085964 a 1.8581215,1.81683 0 1 1 -3.716243,0 1.8581215,1.81683 0 1 1 3.716243,0 z"
 transform="matrix(3.3131123,0,0,3.2750269,109.96193,-0.7771386)"
 id="path2875-0"
 style="fill:#008c31;fill-opacity:1;stroke:none" />
<path
 d="m 27.5002,61.085964 a 1.8581215,1.81683 0 1 1 -3.716243,0 1.8581215,1.81683 0 1 1 3.716243,0 z"
 transform="matrix(-3.3131123,0,0,3.2750269,395.55522,-0.32668907)"
 id="path2875-8"
 style="fill:#008c31;fill-opacity:1;stroke:none" />
</svg>
