<?xml version="1.0" encoding="UTF-8" standalone="no"?>
<!-- Created with Inkscape (http://www.inkscape.org/) -->
<svg
   xmlns:dc="http://purl.org/dc/elements/1.1/"
   xmlns:cc="http://web.resource.org/cc/"
   xmlns:rdf="http://www.w3.org/1999/02/22-rdf-syntax-ns#"
   xmlns:svg="http://www.w3.org/2000/svg"
   xmlns="http://www.w3.org/2000/svg"
   xmlns:sodipodi="http://sodipodi.sourceforge.net/DTD/sodipodi-0.dtd"
   xmlns:inkscape="http://www.inkscape.org/namespaces/inkscape"
   id="svg2"
   sodipodi:version="0.32"
   inkscape:version="0.45.1"
   width="120"
   height="133"
   version="1.0"
   sodipodi:docbase="/home/silje/filer/Wikipedia"
   sodipodi:docname="Hordaland_vapen.svg"
   inkscape:output_extension="org.inkscape.output.svg.inkscape">
  <metadata
     id="metadata7">
    <rdf:RDF>
      <cc:Work
         rdf:about="">
        <dc:format>image/svg+xml</dc:format>
        <dc:type
           rdf:resource="http://purl.org/dc/dcmitype/StillImage" />
      </cc:Work>
    </rdf:RDF>
  </metadata>
  <defs
     id="defs5" />
  <sodipodi:namedview
     inkscape:window-height="983"
     inkscape:window-width="1400"
     inkscape:pageshadow="2"
     inkscape:pageopacity="0.0"
     guidetolerance="10.0"
     gridtolerance="10.0"
     objecttolerance="10.0"
     borderopacity="1.0"
     bordercolor="#666666"
     pagecolor="#ffffff"
     id="base"
     inkscape:zoom="5.887218"
     inkscape:cx="60"
     inkscape:cy="66.5"
     inkscape:window-x="0"
     inkscape:window-y="0"
     inkscape:current-layer="svg2" />
  <path
     style="fill:#ff0000;fill-opacity:1;stroke:#000000;stroke-width:0.2;stroke-miterlimit:4;stroke-dasharray:none;stroke-opacity:1"
     d="M 0.5 0.5 L 0.5 65.78125 L 0.5 66 C 0.5000507 66.000781 0.53119927 65.999219 0.53125 66 C 2.7972499 100.89652 43.064387 130.8272 59.5 132.4375 C 59.665784 132.45195 59.8379 132.48979 60 132.5 C 60.158125 132.48963 60.337131 132.45346 60.5 132.4375 C 76.935613 130.8272 117.20275 100.89652 119.46875 66 C 119.4688 65.999219 119.49995 66.000781 119.5 66 L 119.5 65.78125 L 119.5 0.5 L 60.5 0.5 L 60 0.5 L 59.5 0.5 L 0.5 0.5 z "
     id="path2177" />
  <path
     id="path7058"
     d="M 94.456893,37.92888 L 91.030988,35.011163 L 29.7587,106.95528 L 33.18462,109.873 L 94.456893,37.92888 z "
     style="fill:#ffe000;fill-opacity:1;stroke:#000000;stroke-width:0.2;stroke-miterlimit:4;stroke-opacity:1;stroke-dasharray:none" />
  <path
     style="fill:#ffe000;fill-opacity:1;stroke:#000000;stroke-width:0.2;stroke-miterlimit:4;stroke-opacity:1;stroke-dasharray:none"
     d="M 24.90924,37.20774 L 28.36651,34.327252 L 88.856884,106.93004 L 85.399608,109.81053 L 24.90924,37.20774 z "
     id="rect5105" />
  <path
     style="fill:#ffe000;fill-opacity:1;fill-rule:evenodd;stroke:#000000;stroke-width:0.2;stroke-linecap:butt;stroke-linejoin:miter;stroke-miterlimit:4;stroke-dasharray:none;stroke-opacity:1"
     d="M 93.970262,43.90794 C 98.897223,47.55525 104.76104,45.4441 110.14206,43.90793 C 110.40289,49.04899 107.66222,54.10245 103.67334,58.08936 C 99.684452,62.07626 95.806718,65.42812 90.23831,67.29483 C 91.017563,60.98023 92.404222,56.48652 88.994325,51.12304 C 85.308715,47.94314 84.314507,49.8496 82.152413,48.26187 C 79.929503,46.62949 80.196266,42.6012 82.525608,40.05159 C 84.797532,37.56482 88.440795,37.40534 90.611505,39.1808 C 92.844423,41.00714 91.477646,41.95632 93.970262,43.90794 z "
     id="path6085"
     sodipodi:nodetypes="cczcczzzc" />
  <path
     sodipodi:nodetypes="cczcczzzc"
     id="path7056"
     d="M 26.02974,43.16155 C 21.10278,46.80886 15.23896,44.69771 9.85795,43.16154 C 9.59711,48.3026 12.33778,53.35606 16.32667,57.34297 C 20.31555,61.32987 24.19329,64.68173 29.7617,66.54844 C 28.98244,60.23384 27.59578,55.74013 31.00568,50.37665 C 34.69129,47.19675 35.6855,49.10321 37.84759,47.51548 C 40.0705,45.8831 39.80374,41.85481 37.4744,39.3052 C 35.20247,36.81843 31.55921,36.65895 29.3885,38.43441 C 27.15558,40.26075 28.52236,41.20993 26.02974,43.16155 z "
     style="fill:#ffe000;fill-opacity:1;fill-rule:evenodd;stroke:#000000;stroke-width:0.2;stroke-linecap:butt;stroke-linejoin:miter;stroke-miterlimit:4;stroke-dasharray:none;stroke-opacity:1" />
  <path
     style="fill:#ffe000;fill-opacity:1;fill-rule:evenodd;stroke:#000000;stroke-width:0.2;stroke-linecap:butt;stroke-linejoin:miter;stroke-miterlimit:4;stroke-opacity:1"
     d="M 60,13.75 C 58.560064,13.726198 57.167612,15.290482 58.9375,18.59375 C 50.328659,14.951561 55.403575,26.295427 58.75,21.375 L 58.75,30.28125 C 56.371513,31.399752 52.947809,32.226675 50.34375,32.78125 C 48.452502,30.793062 47.326368,28.465186 46.375,25.6875 C 52.123884,25.871388 46.928305,16.987431 44.40625,23.5625 C 41.059632,22.431856 38.182425,20.745116 35.34375,18.5 C 38.500112,21.999716 41.614577,25.912405 43.90625,29.5625 C 44.710097,33.198248 44.87239,36.720217 45.1875,40.46875 C 48.521027,42.310722 54.451055,43.450467 60,43.5 C 65.548945,43.450467 71.478975,42.310722 74.8125,40.46875 C 75.12761,36.720217 75.289905,33.198248 76.09375,29.5625 C 78.385423,25.912405 81.49989,21.999716 84.65625,18.5 C 81.817575,20.745116 78.94037,22.431856 75.59375,23.5625 C 73.071695,16.987431 67.876118,25.871388 73.625,25.6875 C 72.673632,28.465186 71.5475,30.793062 69.65625,32.78125 C 67.052191,32.226675 63.628489,31.399752 61.25,30.28125 L 61.25,21.375 C 64.596425,26.295427 69.671343,14.951561 61.0625,18.59375 C 62.832388,15.290482 61.439938,13.726198 60,13.75 z "
     id="path12934" />
  <path
     style="fill:#ffe000;fill-opacity:1;fill-rule:evenodd;stroke:#000000;stroke-width:0.2;stroke-linecap:butt;stroke-linejoin:miter;stroke-miterlimit:4;stroke-opacity:1"
     d="M 45.231407,40.414275 C 49.864518,37.338094 54.344627,36.174445 59.998878,36.234818 C 65.653129,36.174445 70.133238,37.338094 74.766349,40.414275"
     id="path12927" />
</svg>
