<?xml version="1.0" encoding="UTF-8" standalone="no"?>
<!-- Created with Inkscape (http://www.inkscape.org/) -->

<svg
   xmlns:dc="http://purl.org/dc/elements/1.1/"
   xmlns:cc="http://creativecommons.org/ns#"
   xmlns:rdf="http://www.w3.org/1999/02/22-rdf-syntax-ns#"
   xmlns:svg="http://www.w3.org/2000/svg"
   xmlns="http://www.w3.org/2000/svg"
   version="1.1"
   width="390"
   height="480"
   id="svg4228">
  <metadata
     id="metadata11">
    <rdf:RDF>
      <cc:Work
         rdf:about="">
        <dc:format>image/svg+xml</dc:format>
        <dc:type
           rdf:resource="http://purl.org/dc/dcmitype/StillImage" />
        <dc:title></dc:title>
      </cc:Work>
    </rdf:RDF>
  </metadata>
  <defs
     id="defs4232" />
  <path
     d="M 0,0 C 130,0 260,0 390,0 389.98981,114.99797 370.78556,350.14732 194.88837,479.99815 20.79131,350.08886 0.081386,115.02225 0,0 z"
     id="path4240-0"
     style="fill:#008c31;fill-opacity:1;stroke:none" />
  <path
     d="m 60.503713,42.594055 c 0.154723,17.386827 5.71469,33.516461 14.512031,49.143019 -23.472018,-3.012591 -30.477867,0.370003 -44.855371,15.831296 17.198511,1.57632 29.093835,4.95754 38.258994,10.71912 -2.937349,1.5195 -5.411708,2.91218 -6.431471,4.94728 4.441331,2.80503 11.834904,8.58482 19.789135,11.37877 -1.016693,0.28655 -3.284994,1.37521 -4.782373,3.62801 5.680154,3.53939 13.23588,6.91478 20.613683,7.75074 -1.772122,0.94607 -4.039319,2.9791 -4.947285,4.61746 32.267284,18.68974 50.841344,5.88517 53.760474,11.04893 -2.19472,0.41921 -5.07327,1.81344 -6.43147,3.13327 l 14.34713,14.84187 c -2.88743,-0.0813 -6.03421,0.49704 -8.17715,1.48676 4.90917,4.75089 9.96432,10.32079 17.577,18.46728 -3.10116,-0.81854 -7.24991,-0.98256 -9.07003,-0.65964 20.7574,24.92056 22.89757,66.8991 24.57152,85.75291 l -14.18223,-9.56474 c 2.12376,-34.01682 -2.82016,-55.8651 -26.05569,-78.16707 -2.06923,3.16087 -3.66718,6.33146 -4.78238,10.05945 -2.56984,-1.86569 -7.97528,-4.80747 -11.21382,-5.44198 -0.36043,17.9527 3.2337,32.63639 11.21382,46.99917 -12.01517,-16.51987 -27.67266,-31.9871 -47.658822,-40.73263 l 0.164908,14.01731 c -6.3663,-1.64586 -23.265036,-1.04727 -31.167888,0.65963 1.919855,11.56153 9.421375,22.66397 16.820765,30.50826 -3.632834,1.47504 -8.759073,5.06031 -10.719113,7.75073 19.478163,14.44941 39.54493,16.87433 60.19195,18.14004 -16.89757,8.00712 -34.12995,22.98346 -40.897546,33.64153 3.801319,2.80296 16.901851,5.68682 21.438216,5.77183 -0.37991,2.9251 -0.40502,9.69332 0.16493,12.36823 21.35041,-8.60449 42.60937,-22.79068 57.05865,-40.073 4.89412,2.50032 12.92589,9.03275 19.29444,16.82076 -25.09549,4.49041 -53.39698,16.70565 -69.75673,51.28682 5.54017,3.53801 11.02549,4.14118 19.45933,3.95783 -0.47017,4.17655 -0.97302,8.40211 -0.65964,13.19279 21.8082,-8.02721 41.20399,-25.42995 54.74994,-41.88701 -13.49814,26.7049 -23.36919,57.40753 -21.10841,85.58799 4.57707,-1.63785 9.60735,-4.63537 14.84184,-8.24548 5.16101,13.11236 13.21497,26.44227 18.96459,32.89945 7.14687,-7.96985 13.87888,-20.39479 19.29443,-32.23978 3.915,3.43554 9.08622,6.57963 14.01728,7.0911 0.17086,-29.04251 -4.88795,-57.32604 -20.11893,-83.4442 -0.47947,0.11986 31.25601,36.58239 54.09028,40.40282 0.35145,-5.60682 -0.0825,-8.70674 -0.49471,-12.03838 5.00211,-0.24191 14.18997,-1.79528 18.30495,-4.28765 -8.73248,-23.30849 -30.91873,-46.25207 -68.76725,-51.45177 4.61523,-6.4548 13.42293,-13.90427 19.12948,-17.4804 14.62664,18.64475 32.7946,30.04209 57.55343,41.22737 0.39842,-4.93622 0.3449,-9.36537 -0.22323,-13.19103 9.77577,-0.75732 17.35361,-3.31161 21.49653,-5.11392 -9.39523,-12.8467 -23.53647,-27.43257 -41.55719,-34.46606 19.26692,-0.962 42.09755,-2.35983 61.01652,-17.48043 -2.8388,-3.83548 -7.44451,-6.59723 -11.54367,-8.41036 6.67684,-6.42631 14.87326,-17.7236 17.64532,-29.18899 -9.84641,-2.14883 -21.5263,-2.51783 -31.16789,-1.81398 l 0.0206,-13.39892 c -15.98933,5.51248 -34.58406,20.95936 -47.84438,39.94932 6.4233,-13.91208 13.79307,-37.02583 12.03841,-46.83428 -4.011,0.63057 -9.24013,2.69238 -12.53312,5.60694 -0.41793,-3.1271 -1.17784,-6.98951 -3.2982,-10.05948 -16.27956,12.19454 -31.77634,41.66322 -27.53988,78.49688 -5.03426,2.50608 -9.98774,5.99315 -14.34712,9.56477 2.49738,-45.74833 11.4831,-69.24747 24.72641,-85.70463 l -8.07057,-0.0482 c 6.02896,-4.95755 13.22855,-13.4562 15.66642,-18.30495 -2.22839,-1.01314 -5.3105,-1.72216 -6.76128,-2.30872 4.32132,-5.70035 9.26704,-10.59741 14.1822,-13.85238 -0.89662,-1.59345 -3.86007,-3.01849 -5.12841,-3.37067 3.67,-4.28154 18.80539,8.14319 52.45743,-9.82212 -0.84525,-1.85918 -2.73671,-4.10381 -4.45257,-5.11217 7.80573,-1.88707 13.96235,-4.50534 19.95404,-7.75076 -0.62856,-1.35446 -1.97509,-3.37469 -3.29816,-4.12272 6.87122,-2.99582 12.61349,-6.52264 18.63477,-11.70857 -1.72409,-1.96525 -3.90692,-3.55145 -5.93676,-4.78238 7.0693,-4.19948 22.2383,-8.19452 36.60991,-10.88404 -11.2963,-14.264657 -26.06743,-19.599077 -43.04138,-15.831297 3.86848,-9.884579 14.77377,-30.90939 12.53312,-49.967565 -13.02654,3.018022 -28.10585,10.642774 -40.89755,23.252234 -0.54498,-17.198863 -9.0507,-35.525729 -16.07866,-40.072999 -0.88095,11.056512 -0.82691,32.148806 -13.60505,47.823743 -1.02067,-1.939889 -2.62858,-4.020176 -4.28764,-5.606921 -2.49103,3.859279 -4.83576,10.634944 -6.59636,16.490945 -1.13951,-1.349007 -2.3525,-2.551049 -3.62801,-3.628009 -3.21666,6.245762 -5.23228,14.522784 -5.77184,20.778589 -0.79067,-1.233371 -1.70757,-2.520332 -2.63856,-3.628004 -10.52663,25.848684 1.9855,47.566784 -3.26339,53.053944 -1.56684,-2.14667 -3.99836,-4.63419 -6.63117,-5.56001 0.0153,5.55474 -0.13171,11.34543 -1.64908,19.12948 -2.98753,-2.78947 -5.14894,-3.88415 -7.09113,-4.28765 0.37945,5.88704 0.22223,13.30524 -2.14383,22.75753 -1.446,-2.32861 -3.22355,-4.12468 -4.94727,-4.61746 0.29958,7.0604 0.11775,12.58889 -1.15438,19.12948 -0.89316,-0.29212 -3.78279,-0.80329 -5.93673,-0.1649 0.0551,44.19572 -1.25362,55.71111 -7.75073,68.27251 -5.55195,-12.09337 -6.72466,-23.94381 -6.26657,-68.93217 -1.90332,-0.58405 -5.09266,-0.47121 -6.26655,-0.32982 -1.00313,-6.81966 -1.80414,-13.57407 -0.65963,-18.14003 -2.58707,0.16467 -4.41092,1.36384 -5.60694,4.12272 -2.2565,-9.49105 -2.94873,-16.60557 -1.9789,-23.0873 -1.76189,0.0767 -4.88794,1.79481 -6.43147,4.78238 -2.63546,-8.71958 -3.5216,-10.78659 -2.63856,-19.2944 -1.57344,0.008 -5.69883,2.51997 -6.59637,6.59636 -5.35256,-7.8038 6.61767,-17.61452 -2.47366,-54.585031 -1.13309,0.29568 -2.73567,1.657941 -3.46309,3.298185 -0.3776,-10.228346 -4.30456,-18.436516 -5.60692,-21.108406 -1.43354,1.104141 -3.47444,3.396794 -4.12275,4.947285 -1.43575,-6.508536 -4.69399,-14.106661 -6.59636,-16.985676 -2.08609,1.376633 -3.84471,3.669994 -4.28764,5.606923 C 124.03884,58.337921 119.69264,42.743586 118.05711,24.289126 107.71538,35.74374 102.92372,46.073852 103.05032,64.032304 91.899949,55.720136 76.36339,45.456332 60.503713,42.594055 z"
     id="path2998"
     style="fill:#f2f2f2;stroke:none" />
  <path
     d="m 285.15909,47.648904 c 1.96372,6.687101 2.84644,11.880195 3.00724,16.621074 3.54114,-3.595415 8.50491,-7.357271 11.78511,-9.732878 -0.64691,-7.18704 -2.09708,-13.02682 -4.34829,-17.372883 -3.96401,2.334482 -7.57515,6.183167 -10.44406,10.484687 z"
     id="path3797"
     style="fill:#f2f2f2;stroke:none" />
  <path
     d="m 316.95859,91.335099 c 2.46538,-5.452716 4.5752,-10.844034 6.8374,-16.895381 l 17.93165,3.322182 -10.3831,12.963624 c -5.34133,-0.620717 -9.70948,-0.298787 -14.38595,0.609575 z"
     id="path3817"
     style="fill:#f2f2f2;stroke:none" />
  <path
     d="m 102.51933,63.132105 c -4.986457,-3.868097 -9.275204,-6.558224 -13.033747,-8.905613 0.311883,-6.328771 2.418533,-13.715314 5.695047,-16.4527 4.022421,2.054006 7.01619,4.803498 9.54433,7.708927 -2.25866,9.079616 -1.99513,13.876731 -2.20563,17.649386 z"
     id="path3819"
     style="fill:#f2f2f2;stroke:none" />
  <path
     d="m 48.725347,76.583389 c 2.472325,4.579788 5.965557,9.606154 10.281495,13.654476 4.522226,-0.233545 10.237598,0.0019 14.995541,0.812766 -3.478504,-6.116428 -5.721756,-11.084248 -7.883835,-16.742989 -5.635906,0.181668 -11.493331,0.364919 -17.393201,2.275747 z"
     id="path3821"
     style="fill:#f2f2f2;stroke:none" />
</svg>
