<?xml version="1.0" encoding="UTF-8" standalone="no"?>
<!-- Created with Inkscape (http://www.inkscape.org/) -->

<svg
   xmlns:dc="http://purl.org/dc/elements/1.1/"
   xmlns:cc="http://creativecommons.org/ns#"
   xmlns:rdf="http://www.w3.org/1999/02/22-rdf-syntax-ns#"
   xmlns:svg="http://www.w3.org/2000/svg"
   xmlns="http://www.w3.org/2000/svg"
   version="1.1"
   width="390"
   height="480"
   id="svg3796">
  <defs
     id="defs3798" />
  <metadata
     id="metadata3801">
    <rdf:RDF>
      <cc:Work
         rdf:about="">
        <dc:format>image/svg+xml</dc:format>
        <dc:type
           rdf:resource="http://purl.org/dc/dcmitype/StillImage" />
        <dc:title></dc:title>
      </cc:Work>
    </rdf:RDF>
  </metadata>
  <path
     d="m 0.77916738,0.77917 c 129.48837262,0 258.97673262,0 388.46510262,0 -0.0102,114.58758 -19.13881,348.89776 -194.34374,478.28515 C 21.48865,349.61867 0.86023307,115.39093 0.77916738,0.77917 z"
     id="path4240-0-1"
     style="fill:#fae800;fill-opacity:1;stroke:#000000;stroke-width:1.49399996;stroke-miterlimit:4;stroke-opacity:1;stroke-dasharray:none" />
  <path
     d="m 181.50335,467.93941 c -5.21761,-55.21991 -12.26445,-118.74883 -7.73389,-179.26462 1.7894,-23.90144 16.55963,-42.83708 30.07236,-53.31748 -13.10229,-10.13089 -32.39626,-33.80979 -68.27238,-27.63406 -18.81033,3.23802 -40.379725,24.253 -65.508975,44.05194 C 71.631818,149.19375 177.11838,37.336075 284.95591,41.106135 c -13.16689,15.131279 -51.70306,40.104229 -49.90386,92.005155 0.64343,18.56069 12.60864,47.43188 24.22044,72.82387 0,0 38.37387,-19.18188 39.663,-18.36852 13.29934,8.39102 13.19839,6.76358 23.65389,7.17939 1.25123,0.0498 3.51039,3.54016 3.00485,3.87424 -16.15043,10.67264 -32.20926,22.84381 -45.51492,36.41193 l 0.16255,15.60512 -47.79066,34.29874 c -2.45723,-1.27172 -5.37328,-3.44639 -6.66469,-2.60085 -7.25342,4.74911 -17.83111,8.77772 -20.48171,35.43661 -3.24598,32.64705 1.5045,104.56082 3.01971,150.56793 l -13.36994,10.72222 z"
     id="path3767"
     style="fill:#000000;stroke:none" />
  <path
     d="m 181.25,408.5625 c 6.86734,19.62868 22.13073,29.9921 20.875,40.6875 -10.89741,-17.0145 -24.83296,-30.62554 -20.875,-40.6875 z"
     id="path3769"
     style="fill:#fae800;fill-opacity:1;stroke:none" />
  <path
     d="m 178.4375,341.8125 c 7.02856,22.91546 22.74721,37.92302 22.1875,48.0625 -7.66039,-14.03983 -25.86238,-37.03706 -22.1875,-48.0625 z"
     id="path3771"
     style="fill:#fae800;fill-opacity:1;stroke:none" />
  <path
     d="m 180.125,283 c 6.13702,25.91885 22.67825,40.25107 19.875,51 -7.72547,-14.51094 -25.67718,-42.67754 -19.875,-51 z"
     id="path3773"
     style="fill:#fae800;fill-opacity:1;stroke:none" />
  <path
     d="m 200.4375,245.875 c -3.39254,10.0431 -8.17331,22.6975 -13.3125,32.9375 -0.64087,1.27695 5.75418,8.30204 6.9375,7.5 6.98145,-4.73194 22.38359,-9.01966 34.09375,-7.34375 0.29201,0.0418 0.5835,-1.40612 0.10814,-1.6417 -5.70003,-2.8248 -22.2685,-1.83476 -32.48314,3.6417 -1.37842,0.73902 -4.5,-2.125 -4.5,-2.125 -0.56919,-0.88524 9.56786,-23.55367 10.53182,-32.53125 0.0819,-0.76227 -1.10439,-1.24029 -1.37557,-0.4375 z"
     id="path3775"
     style="fill:#fae800;fill-opacity:1;stroke:none" />
  <path
     d="m 260.875,210.75 c 17.31899,-0.11254 30.44127,-1.96572 29,0.3125 -4.94575,7.81775 -7.875,13.39338 -11.8125,18.5625 -0.83499,1.09617 -4.98218,0.20014 -3.75,-1.5 3.31176,-4.56951 6.77858,-8.74069 9.1875,-13.4375 1.00981,-1.96889 -13.89581,-0.39584 -21.25,-0.8125 -1.59168,-0.0902 -2.59683,-3.11706 -1.375,-3.125 z"
     id="path3777"
     style="fill:#fae800;fill-opacity:1;stroke:none" />
</svg>
