<?xml version="1.0" encoding="UTF-8" standalone="no"?>
<!-- Created with Inkscape (http://www.inkscape.org/) -->

<svg
   xmlns:svg="http://www.w3.org/2000/svg"
   xmlns="http://www.w3.org/2000/svg"
   version="1.1"
   width="390"
   height="480"
   id="svg4228">
  <defs
     id="defs4232" />
  <path
     d="M 194.26941,479.99758 C 323.39284,408.19922 390.06262,297.07918 390.04028,192.70037 L 389.99908,-0.0314353 0.00560551,-0.01989467 0.12284142,201.11084 C 0.17801238,295.75308 74.524519,416.79626 194.26944,479.99758 z"
     id="path3863"
     style="fill:#f50000;fill-opacity:1;stroke:none" />
  <g
     transform="matrix(1.0204564,0,0,1.0204564,-3.9699768,-4.423408)"
     id="g3877">
    <path
       d="m 163.11602,54.757115 c 3.01732,-2.590155 6.88332,-4.788435 11.17714,-5.121994 12.25238,-0.951807 23.2933,0.03761 26.05226,1.925815 -4.95302,-1.011483 -13.95607,-1.934724 -17.40538,-1.466219 4.60131,1.561841 15.03443,7.058516 15.08148,10.754103 0.18105,14.213023 -9.81421,32.026565 -36.81466,34.407749 C 133.32079,97.715832 129.52878,115.6029 117.55562,152.52497 105.20584,133.94425 91.486939,114.81093 82.148724,97.44571 95.953143,81.015247 111.39901,65.295838 120.33271,43.592392 c 7.62028,-18.512679 -7.64573,-24.366538 -11.28167,-22.592121 3.69319,1.629152 6.08126,6.739581 4.33908,8.66907 -3.52096,3.899475 -5.0972,9.652127 -1.99599,15.061418 3.65971,6.3834 -9.99437,24.814193 -15.099992,27.846111 2.227155,-6.651937 4.118812,-11.82542 4.605562,-19.898818 1.0333,-17.137011 -7.218498,-24.115399 -15.43402,-20.050874 4.136804,0.537227 8.085936,3.741707 6.836505,5.711233 -3.194928,5.036281 -2.034387,11.931037 2.082757,16.462478 3.709326,4.082573 -0.920208,19.652439 -6.595406,21.804035 1.92671,-6.112112 0.309438,-17.383154 -1.562073,-23.730494 -2.089628,-7.087112 -7.841512,-17.262693 -17.214358,-13.705424 3.666999,1.083458 6.569603,3.114925 5.49883,8.013612 -1.26209,5.773955 5.64154,13.67248 8.370446,15.114379 4.619526,2.440863 0.834878,15.72644 -1.601475,20.875403 -1.804085,3.812745 -16.892126,26.03125 -26.815541,26.18239 -7.706164,0.11732 -8.617217,1.35796 -11.541966,7.96853 -1.147746,2.59409 -2.082503,3.97773 -8.851732,2.27669 11.485424,13.04084 24.073007,-4.20978 29.245431,-7.88094 8.408888,-5.96838 10.446141,-6.91698 12.409782,-8.66912 12.410405,15.20499 35.03956,74.46734 49.77513,73.30748 3.89821,-5.83176 6.19967,-22.61284 8.72894,-32.51799 3.48975,-13.66617 12.90782,-34.53516 21.22843,-34.53445 l 70.50831,0.006 c 7.81199,7.2e-4 13.50278,-40.600891 13.51622,-57.049479 24.38484,15.482025 44.28759,-3.531843 44.25865,-14.623585 -9.17521,6.795369 -31.42065,12.966457 -43.7379,10.507965 -0.15708,-1.186208 -0.53843,-2.88659 -1.46993,-4.443187 -1.84479,-3.082594 -5.70012,-3.525434 -5.52349,-4.385994 0.31082,-1.514004 2.72009,-1.490306 5.12738,-1.06491 2.19304,0.387527 2.26977,1.945157 6.44004,2.251371 7.68381,0.564217 26.22863,-10.845317 27.75755,-12.721937 -5.26554,-0.05248 -27.4092,-0.182296 -41.7691,0.0053 -2.03321,0.02662 -3.39626,5.951776 -7.48494,3.896705 -7.90645,-3.973994 -14.73211,-3.642367 -22.99716,-3.85292 -11.42008,-0.29093 -37.65867,1.522709 -36.96899,26.92666 l 0,-3.7e-5 0,-3.93e-4 0,3.3e-5 0,5.33e-4 z"
       id="path2849"
       style="fill:#faf700;fill-opacity:1;stroke:none" />
    <path
       d="m 134.8166,147.5526 c 3.64551,-19.13708 14.23113,-37.19452 20.78755,-37.19527 l 89.91131,-0.009 c 39.27859,-0.004 81.01536,-18.47836 87.40527,-39.847335 2.45951,-8.224886 3.56918,-13.211082 3.20639,-23.979306 4.41799,0.04265 14.75637,7.999473 15.27771,13.798251 -3.91458,3.682066 -7.1922,5.807516 -4.20262,9.390196 2.68152,3.213556 6.91171,-0.71141 9.6042,-2.941818 4.68862,3.043362 3.70144,20.211266 2.78783,22.749698 -4.95862,-0.211134 -12.80883,-0.474982 -13.26757,4.254639 -0.30333,3.12778 3.86339,4.187524 8.31662,4.317371 -3.77058,6.938114 -14.89409,17.047244 -19.05095,18.913944 -2.42025,-4.43476 -6.04772,-6.24812 -8.69678,-4.23819 -2.18868,1.66063 -2.34543,4.40974 1.35793,8.68576 -5.15569,3.77767 -18.06064,12.87062 -24.55931,13.9353 0,0 -2.63669,-7.25115 -7.33965,-5.11737 -4.3462,1.972 -1.24834,8.74895 -1.24834,8.74895 -5.42091,1.55491 -12.92419,3.43716 -23.05384,4.87379 -0.51182,-3.14831 -0.84338,-8.68403 -6.74391,-7.93919 -3.59899,0.45428 -3.77461,5.40764 -3.07281,9.20609 -8.03903,1.12751 -15.05904,1.72174 -20.74476,2.31848 -0.0356,-5.13395 -0.94677,-8.72098 -5.6493,-8.63798 -5.02259,0.0891 -5.65481,4.65007 -5.49581,8.6891 -6.81733,0.1258 -12.08826,-0.089 -18.41966,-0.0421 -0.0221,-4.79759 -2.90645,-7.30355 -6.90844,-7.14936 -5.22683,0.20137 -6.58472,3.9424 -6.22599,7.18037 -3.23791,0.0276 -8.34473,0.0532 -11.95081,0.0741 0.21032,-4.2573 -2.34235,-7.20515 -6.41932,-7.20462 -4.58198,6e-4 -7.20454,3.33916 -6.85787,7.14056 -1.59549,0.003 -7.38704,-0.0469 -11.30503,0.001 -0.11675,-3.86058 -2.15829,-7.29444 -7.34744,-7.24965 -5.19121,0.0445 -6.93196,3.7472 -6.64064,7.2488 l -13.45396,0.0252 0,-2e-5 z"
       id="path3763"
       style="fill:#faf700;fill-opacity:1;stroke:none" />
    <path
       d="m 149.73754,148.93677 c -1.11337,-4.19464 1.32222,-7.13284 5.38358,-7.2325 2.54955,-0.0624 6.35166,1.639 5.62635,7.22918 l 14.15133,0.0983 c -0.8969,-4.73398 1.98375,-7.5577 5.40178,-7.59752 2.93652,-0.0344 5.86561,1.94932 5.40824,7.36815 l 14.21689,0.0653 c -1.59462,-9.89212 11.31469,-9.6037 10.97383,-1.14654 -0.59413,14.73936 -5.5831,32.5427 -6.68253,46.51597 -0.89811,11.41352 2.56215,49.53071 37.73682,55.03296 25.04916,3.91834 54.71153,-47.12389 91.72163,-48.21931 29.99713,-0.88788 26.24511,27.89608 23.19249,39.70236 -5.48082,21.19735 -24.999,39.36666 -24.76485,42.97811 0.70953,10.94006 -1.15971,19.43304 -7.73077,26.99236 -11.16209,12.84066 -26.83349,17.62032 -30.2682,42.0609 -8.29903,-22.29275 1.18215,-48.31897 27.6476,-71.14974 14.88311,-12.83914 27.17327,-31.72469 29.48193,-50.31588 2.92503,-23.55483 -16.82939,-31.46119 -46.77807,-11.79279 -22.36747,14.68949 -36.21593,37.66094 -61.32249,39.44025 -15.88741,1.12597 -21.67488,-2.48556 -25.41991,-7.99292 0.14805,3.57318 5.99007,7.99841 12.25608,8.67528 20.78264,17.85928 55.83506,56.08128 53.12834,60.11601 -16.92837,25.23327 -21.09912,60.07592 -44.15747,86.61137 -6.33242,7.28739 -10.41655,1.08105 -17.9512,-6.42047 -6.3519,8.25981 -11.22793,12.19455 -24.37176,11.79279 -7.28383,-0.22268 -9.15293,-0.86026 -12.84103,-4.71717 -4.5939,-4.80404 -11.26142,-2.47069 -14.60998,3.01378 -2.26419,-9.11266 4.75853,-9.88922 6.355,-12.77556 1.69351,-3.06175 11.3622,-3.63566 16.90305,-1.04824 2.34257,1.09389 4.46846,0.99081 6.28944,0.58968 -7.17067,-4.8068 -20.61194,-6.31909 -14.15133,-18.34438 -1.63366,-3.9194 -6.63425,-5.12916 -12.51341,-4.78264 6.55878,-5.95495 11.72504,-1.99237 15.3306,-1.96545 5.50329,0.0405 9.86853,0.64306 12.84103,5.63438 2.89051,4.8536 10.2859,9.23766 10.2859,9.23766 -3.94511,-7.39325 -14.584,-18.15061 -10.15487,-23.65114 3.79175,-4.70896 1.80626,-9.51926 -4.06202,-12.57888 7.23825,-1.84659 9.78876,3.60034 14.09083,4.51534 3.66863,0.78029 3.81058,4.84069 4.05696,9.17734 0.34769,6.11954 -2.21022,19.18406 5.11026,17.9512 18.78144,-3.16286 23.94322,-23.75374 25.68206,-37.47476 0.70173,-5.53738 -0.53186,-10.08877 -5.24129,-16.50996 -26.92947,-36.71796 -45.41145,-32.13044 -67.34247,-57.4077 -3.04788,-3.51295 -2.90934,-13.56152 -8.26238,-19.57292 3.17725,5.46737 6.3567,15.13217 2.48966,26.53371 -4.27696,12.60984 -17.42628,47.9841 -27.77854,42.19202 L 76.330803,284.64874 c -3.919114,-2.19271 -8.032563,-2.79337 -6.61706,-6.68258 2.435819,-6.69263 -5.850362,-6.47541 -11.334173,-3.40682 -12.843117,7.18679 -11.620148,-7.83597 -16.640925,-9.69627 -3.589973,-1.33016 -8.735393,-0.35072 -12.513451,2.35859 0.962423,-5.78509 9.776765,-9.23592 14.834848,-8.62145 7.637033,-4.60358 15.764438,-5.07645 23.884785,-1.59898 2.685127,-11.26894 -8.473667,-9.15674 -5.63433,-19.78571 1.885765,-7.05927 12.085293,-3.01757 11.66175,-10.22034 -0.121309,-2.06303 -4.539608,-5.27159 -8.254946,-2.4241 -1.112821,-7.52897 21.320016,-9.65459 15.461648,9.69631 -1.505755,4.97362 -5.365308,7.11079 -2.75165,15.39607 14.937521,-4.60787 7.127452,-26.04554 16.902987,-29.74399 4.881784,-1.18737 7.040944,-8.2785 6.289514,-11.92382 3.28698,1.81522 4.5898,6.69522 4.15881,9.88206 -0.45518,3.36556 5.40553,6.38557 2.26166,15.40691 -2.00645,5.7576 -10.841302,15.44541 -18.475346,29.21987 -5.031932,9.07945 22.160406,19.95289 39.964446,29.08891 -0.91721,-21.35805 -8.52931,-47.61228 -2.6206,-63.15689 3.61348,-9.50642 14.23988,-9.5696 21.8821,-4.45511 4.00954,2.6834 7.75895,5.64148 11.66176,10.61352 0.60714,-21.75047 -6.94832,-44.59988 -15.19957,-60.40519 -2.53029,-4.84683 15.41944,-4.46771 19.39253,-0.78627 -2.15716,-5.40169 -24.31811,-8.25124 -22.60281,2.16204 1.01304,6.14996 4.09084,17.3631 -0.75335,17.39439 -25.48365,0.16458 -51.129587,-0.33978 -77.734087,0.62237 -0.632963,12.99249 -5.818275,49.07484 -26.009634,36.55764 4.423645,-0.68614 6.853586,-0.13459 7.468761,-5.43779 1.054931,-9.0942 14.514539,-10.90011 13.627215,-21.42354 -0.758142,-8.99136 -7.238653,-27.32297 -15.723709,-31.05438 -5.850433,-2.57269 -6.818753,-7.53148 -6.092938,-15.46163 0.292564,-3.1965 -4.848952,-4.38792 -9.041132,-0.32753 0.381851,-8.11957 11.026892,-9.88192 14.085823,-3.21028 l 15.199585,33.15077 c 1.812594,-9.95828 1.042886,-22.18154 -0.917216,-24.3062 -2.991881,-3.24295 -7.410916,-6.51065 -2.948196,-16.57543 0.941772,-2.12395 -1.02479,-5.82265 -8.254947,-5.76532 2.5886,-3.52158 17.789093,-4.79312 17.427111,11.92382 l -0.720672,33.2818 c 4.236668,-5.59064 12.659447,-23.96647 10.351442,-28.17163 -3.171277,-5.77799 -1.997321,-10.29072 1.212037,-13.2669 3.088872,-2.86438 -0.962585,-8.30367 -4.160231,-9.46694 5.606638,-3.01216 13.901347,4.91871 11.596235,15.92028 -2.8011,13.36862 -8.997457,22.75566 -15.461647,36.68861 l 55.29503,-3.93093 c 8.33882,-0.59279 10.94397,-21.19553 13.92205,-33.47839 l 15.32723,-0.29152 z"
       id="path3831"
       style="fill:#faf700;fill-opacity:1;stroke:none" />
    <path
       d="m 211.60395,152.22659 c -1.21829,12.65271 -3.90938,23.60484 -4.59981,28.76875 3.20686,1.81459 10.07372,3.56156 14.95931,3.56711 2.78278,-8.63032 14.35567,-6.82471 10.12887,4.44739 l 16.44785,3.7987 c -0.9728,-10.85616 13.44425,-11.35799 11.0581,-0.18524 6.53775,0.90647 13.51032,0.83765 20.53646,0.64851 -1.7196,-10.47884 10.97091,-10.13472 10.22186,-0.18529 8.39037,-1.06907 16.91636,-3.62588 25.55451,-7.4122 -8.75673,-8.84819 1.83085,-14.68655 7.43396,-6.20777 6.08234,-3.72259 12.24569,-9.01435 16.81952,-14.82443 -13.23727,-4.22555 -4.11062,-13.46636 5.5755,-7.59758 2.67953,-1.88041 5.94284,-6.20077 6.96948,-13.24929 -4.0579,-0.35841 -9.45741,0.4214 -8.92091,-4.03047 0.54858,-4.55127 8.44706,-2.89555 12.82378,-2.54795 2.48446,-7.09683 0.63367,-20.74465 -9.10675,-24.55295 -16.71345,46.95241 -79.38116,50.15985 -135.90173,39.56271 z"
       id="path3833"
       style="fill:#faf700;fill-opacity:1;stroke:none" />
    <path
       d="m 188.89415,36.163753 c -0.73891,0.584435 -0.82754,1.711969 0.22093,1.961565 -0.24553,-1.084663 0.81264,-1.350914 1.63409,-1.364339 l 5.18716,-0.08473 c 0.66849,7.677753 10.78962,6.37751 10.92115,0.07068 2.27651,-0.148384 4.28278,-0.06907 6.4855,0.159038 1.3778,0.142679 1.93918,0.73374 1.87321,1.625802 0.48324,-0.341556 0.65951,-1.268229 0.14138,-1.908548 -1.18258,-1.461237 -8.08025,-1.567352 -14.08436,-1.45791 -7.9722,0.145315 -11.47555,0.283832 -12.37906,0.998444 z"
       id="path3861"
       style="fill:#f50000;fill-opacity:1;stroke:none" />
  </g>
</svg>
