<?xml version="1.0" encoding="UTF-8" standalone="no"?>
<!-- Created with Inkscape (http://www.inkscape.org/) -->
<svg
   xmlns:svg="http://www.w3.org/2000/svg"
   xmlns="http://www.w3.org/2000/svg"
   version="1.0"
   width="200"
   height="228.91367"
   id="svg8900">
  <defs
     id="defs8902" />
  <g
     transform="translate(-275,-417.90535)"
     id="layer1">
    <path
       d="M 474.83397,546.94947 C 474.76306,602.06466 430.11526,646.81901 375,646.81901 C 319.88474,646.81901 275.20313,602.10027 275.14231,546.94947 L 275,417.90535 L 475,417.90535 L 474.83397,546.94947 z"
       id="path4980"
       style="fill:#56ab54;fill-opacity:1;fill-rule:nonzero;stroke:none" />
    <path
       d="M 372.4956,424.77542 C 368.71057,425.00492 369.87796,427.92177 367.75177,427.97751 C 366.19343,429.01589 365.54033,432.10821 366.94531,433.88358 C 369.62638,435.83329 364.28578,433.90621 364.52596,436.16062 C 365.78862,439.37373 365.28789,442.13144 364.12273,444.41489 C 364.2037,445.22365 365.41539,445.44602 365.35613,446.54961 C 366.70211,445.9726 367.90991,447.52149 366.04399,447.47466 C 363.95674,447.6553 365.3086,450.45607 364.92918,451.93386 C 365.34973,452.90383 367.56562,451.5994 367.84664,453.19098 C 370.00427,452.38846 370.97669,456.47317 368.67681,456.48794 C 368.31528,458.25123 370.6212,458.6027 370.57435,460.47276 C 371.82011,460.51814 372.97201,460.88519 371.97378,462.39402 C 371.334,464.1157 373.54743,464.47876 372.82767,466.3314 C 372.77873,471.82095 373.04167,477.30511 373.15974,482.7925 C 373.08987,477.35861 361.67804,468.63492 356.86467,466.42627 C 353.71484,464.98095 351.58777,463.32107 347.94626,462.72608 C 348.23107,460.06438 346.31554,456.38184 348.04114,454.47181 C 350.39431,453.62692 349.81665,450.09377 347.11609,451.10369 C 347.29762,449.10751 350.36493,448.07938 349.15594,445.26878 C 349.40491,443.40513 348.59981,442.26797 346.68915,442.80199 C 346.2983,440.74618 349.09916,442.08537 348.68156,439.5999 C 348.09761,438.363 349.14561,431.26612 345.52691,434.00218 C 343.46228,436.39714 345.10427,432.59304 345.78782,431.46422 C 344.55098,429.86698 344.49974,427.00895 341.99275,426.74411 C 340.80432,427.54189 341.50131,428.39996 339.9529,427.12362 C 338.33648,424.06324 333.81122,424.19058 331.76979,426.64923 C 332.08258,428.75677 331.73856,430.2075 330.10945,430.37314 C 327.8277,430.8211 328.24787,436.80684 331.34285,436.18434 C 331.15735,437.58763 328.87008,436.89033 329.68251,439.29155 C 329.51908,441.20322 330.69328,442.12352 330.86846,443.91679 C 331.62152,444.51537 334.47571,444.73444 332.38649,445.71944 C 329.71278,446.8262 332.48293,452.25451 335.4937,452.76403 C 335.42679,454.07717 333.66759,454.84693 335.30395,455.89496 C 336.99597,456.87134 338.65823,458.54504 340.87795,457.31811 C 340.66941,460.01348 345.17722,460.67383 344.95765,461.89591 C 341.34659,461.80214 338.81826,460.49509 335.70717,459.38168 C 333.15105,458.6202 331.82487,457.03006 331.69863,454.40066 C 328.53907,452.69957 328.53204,449.01641 328.44911,445.71944 C 326.50099,444.16252 325.09775,446.44681 323.89503,446.95284 C 323.78134,444.29858 323.20498,439.11036 319.69674,438.79345 C 318.81989,439.54938 318.46022,441.40271 318.32103,438.9832 C 318.49558,435.65839 314.98752,434.56077 313.05537,432.43671 C 311.12133,432.57047 310.35185,434.5402 309.33146,431.86745 C 307.75869,429.30552 304.4308,431.53476 302.61894,431.5591 C 300.10147,429.75277 293.92968,430.33184 294.38839,434.61887 C 293.64978,437.14608 296.27294,438.46167 296.92634,439.90825 C 291.91815,439.97805 297.56713,445.79743 300.03355,445.2925 C 303.21177,445.31067 301.36975,447.07003 299.01363,446.12267 C 297.73677,447.58829 299.2542,450.92603 301.90736,449.8703 C 302.3238,451.81061 309.84726,449.01301 306.50888,452.21849 C 302.61227,452.89033 307.37357,456.86436 309.68725,455.65777 C 312.28698,455.84251 314.6889,455.69667 316.23374,454.40066 C 317.00214,455.49551 319.44591,455.68331 316.85044,456.39307 C 314.04949,459.00781 319.68771,458.73073 321.49939,458.57523 C 323.93279,456.84594 325.94333,460.56242 328.54399,460.06954 C 331.34219,458.42724 332.866,462.01087 335.92065,461.89591 C 336.31791,462.67285 338.26022,463.24913 335.92065,463.12931 C 334.35707,467.12743 330.28505,462.34658 327.35803,465.12172 C 326.91603,467.93147 323.43114,463.86977 322.23469,466.44999 C 319.81054,466.42344 318.33176,468.34797 318.96144,470.00787 C 315.63446,470.47521 311.91937,471.47443 312.69958,475.58187 C 309.81096,476.43218 310.933,479.44014 309.63981,481.53538 C 308.44923,484.53644 311.36801,486.18112 313.64835,484.31052 C 315.62409,486.02008 319.05803,485.42831 319.31723,482.19952 C 321.61295,484.69115 323.47934,481.06396 325.9586,480.5629 C 325.68938,477.30436 329.43911,480.63967 331.27169,477.95379 C 332.89008,476.55593 330.62571,471.83889 334.35518,473.09136 C 336.50714,472.51557 336.27747,469.60503 337.58099,468.32381 C 338.82583,466.44141 341.09239,464.75443 343.73554,465.0099 C 348.24654,465.4459 352.58869,467.33906 356.86467,470.1739 C 361.68834,473.37183 367.52325,478.16147 369.06421,483.64865 C 374.13614,501.70925 371.23497,517.06311 369.08004,532.38927 C 367.50729,525.92891 363.91649,520.83234 359.08184,516.47032 C 354.42644,512.27003 347.83351,510.15168 341.56581,508.33804 C 336.4847,506.86776 341.20448,504.68558 343.46334,505.42058 C 345.24462,505.7023 346.1441,503.63017 347.04493,502.95379 C 350.19,503.68601 352.86996,502.38847 354.77738,500.46328 C 358.20348,500.29548 353.3056,495.3999 357.69484,496.71565 C 359.84292,496.06095 363.69686,491.52271 359.54493,490.50123 C 362.52575,489.10041 361.76427,482.88362 358.31154,483.02969 C 355.67284,483.10951 355.1797,485.20784 352.97473,483.88358 C 350.04566,483.83654 346.68304,485.9947 348.34949,489.26783 C 346.96779,491.03533 344.9162,486.33619 344.19863,489.67106 C 341.07041,491.02233 341.67109,494.70291 341.3049,497.14259 C 338.52458,496.43128 338.35687,499.01385 338.26884,500.8665 C 340.75687,503.56575 333.45864,502.971 336.75082,506.6777 C 334.91192,509.13238 330.03002,507.39032 326.78877,507.91109 C 323.93972,510.1298 321.14061,508.57263 318.70053,507.08092 C 316.38094,505.3003 313.00876,504.98016 311.03924,501.91014 C 309.01981,500.36686 309.10063,497.77057 308.12178,495.2925 C 306.03059,494.31363 309.1858,487.40523 303.75746,488.01071 C 301.32669,487.21283 304.38338,482.04029 300.41306,481.22703 C 298.58846,478.97598 295.97225,483.79202 296.52311,479.3295 C 297.35535,475.78668 294.48896,475.19739 292.06391,474.32476 C 290.20379,474.20965 289.57044,477.36626 287.81818,475.15493 C 283.51718,473.85005 278.77552,477.36587 281.27169,481.82001 C 282.29298,483.11531 278.24526,482.49901 279.51647,484.9035 C 279.8666,488.17713 282.42191,490.50205 285.92065,490.52495 C 289.52049,489.83084 283.28122,494.0806 288.12653,495.45853 C 289.13307,498.86218 296.69887,493.91964 294.29351,496.9054 C 290.85412,500.22668 299.27495,502.40338 301.50414,500.03633 C 301.72578,502.56454 306.00238,501.33706 307.41021,502.31337 C 310.55275,505.56794 316.54164,509.53679 320.36533,511.41924 C 317.13192,512.78574 310.10981,516.39546 309.78213,521.59705 C 306.22443,522.82905 302.84178,518.66605 300.55537,522.5221 C 299.91999,524.59256 296.43863,520.32557 295.69294,523.25739 C 293.32649,523.20109 289.24907,525.12314 291.11514,527.83519 C 288.28941,528.40211 284.94816,529.27361 283.66733,531.39307 C 284.39085,533.79962 287.75403,535.37537 283.78592,537.20426 C 281.7614,538.1489 284.90536,540.79032 282.81344,541.52115 C 280.98522,547.88205 288.8382,545.26446 289.88175,544.1777 C 291.90555,547.11577 295.49028,544.4314 295.266,541.49743 C 295.81498,542.17448 295.651,544.46937 297.96998,543.58472 C 300.26853,542.10636 304.23853,541.51689 304.11325,537.44145 C 304.23688,533.32606 304.64789,535.88479 305.22805,538.20047 C 308.60106,537.61634 310.11949,534.22062 310.63602,531.34563 C 314.18277,529.93351 310.64985,525.76976 312.93678,523.56574 C 313.87613,520.42444 315.85939,516.26909 319.00888,515.38263 C 323.96509,513.98765 331.06548,510.96228 336.41875,512.06195 C 342.35242,513.28085 350.11781,515.79673 354.53339,520.05416 C 361.33414,526.61134 362.94518,531.58269 364.12273,544.13026 C 365.00225,553.50206 364.12273,563.12141 364.12273,572.61698 C 362.72492,570.19757 361.11979,567.90633 359.33146,565.76214 C 355.00958,560.58024 349.41094,557.89426 342.96524,556.44051 C 341.15456,556.00882 337.67315,555.92931 335.09048,555.61033 C 334.22213,554.08402 329.1977,550.89298 333.8808,549.6331 C 336.14009,550.01729 335.89671,547.45355 338.60091,547.4035 C 340.00184,546.43869 342.33438,545.50611 340.87795,543.58472 C 342.52601,542.42699 347.21427,539.60573 345.24228,536.70616 C 344.02566,536.89748 341.63928,535.37884 344.19863,535.70995 C 345.87929,534.4006 346.83856,530.58323 344.67302,529.56669 C 347.66581,527.64986 344.56862,524.14645 341.82672,525.39212 C 340.00414,526.22014 338.29914,525.32509 336.06296,526.05625 C 336.01281,528.27314 333.98149,529.34227 332.17302,528.66536 C 330.94304,530.6709 330.06201,532.51694 330.51268,535.28301 C 326.4528,534.53431 327.7286,540.18567 328.02216,542.75455 C 325.29005,543.01693 327.42804,547.29351 329.68251,546.47846 C 327.5203,549.57129 328.32632,554.03899 330.39408,556.5591 C 327.56384,555.72056 315.1523,557.75798 310.79639,557.95173 C 310.48772,554.63676 306.53699,551.96529 305.22805,555.61033 C 302.69362,555.09805 305.14303,551.11266 302.09712,551.05625 C 300.74243,550.1816 296.60894,550.30135 297.75651,553.11982 C 296.17625,553.24555 297.08655,549.99988 294.86277,550.62931 C 293.2018,548.45055 286.64522,549.53503 289.4548,553.11982 C 286.80265,549.58492 279.92501,552.79903 283.16922,556.91489 C 284.96192,558.2159 288.42762,558.30844 285.80205,560.28301 C 286.02283,564.14214 290.7834,565.27836 293.20243,564.31527 C 295.34512,563.97329 295.27807,564.63186 294.50698,566.14164 C 295.90218,568.38992 301.95554,567.74707 303.1882,564.81337 C 303.59016,562.47156 305.38928,563.59704 304.39788,565.54866 C 307.23981,567.19373 310.21846,564.33802 310.6123,562.2517 C 317.81503,559.23392 323.97829,557.49206 327.78497,560.42532 C 327.44893,562.14626 325.50474,564.26929 324.6066,565.54866 C 321.95622,565.66432 319.47952,566.94471 318.27359,569.50977 C 316.11466,568.35863 313.09059,569.18847 310.6123,570.12646 C 310.86473,571.95007 312.32295,573.31003 310.16163,573.23367 C 307.95967,571.16347 304.31577,572.95349 302.31059,574.27732 C 303.20341,576.10485 303.14676,578.45207 300.48421,577.38453 C 298.77111,579.15853 293.55866,580.54413 296.71287,583.83614 C 300.19753,586.30219 292.17723,583.51825 293.60566,586.70616 C 290.46487,588.06832 292.01479,590.54844 293.55822,592.25644 C 291.95268,594.12146 291.73466,598.51857 296.00129,597.19003 C 297.93391,596.4388 299.57807,595.09758 300.43678,597.45094 C 303.04969,598.84832 305.93564,596.30725 305.63127,594.1777 C 307.40944,593.92222 307.46528,596.61304 309.66353,594.86555 C 312.23168,593.83851 312.61768,591.69331 312.27264,589.19667 C 314.85282,587.43973 313.32985,592.41735 316.25746,590.61982 C 318.93004,588.18429 319.06394,585.15838 319.74418,582.15208 C 322.11191,583.23153 323.255,582.43156 323.46808,580.27827 C 324.75039,578.7637 323.35435,576.03229 324.7252,575.29724 C 327.46503,573.62942 328.87334,570.40147 326.36182,567.23273 C 329.91206,565.97835 329.87888,561.37773 333.7622,560.85227 C 345.48985,559.26537 352.22674,565.13617 358.55999,573.26305 C 363.19066,579.20516 363.99936,586.93578 362.80686,603.59535 C 362.29052,610.80869 351.79627,613.45603 346.68915,609.09705 C 342.91198,608.20631 334.72245,606.75154 332.12558,607.46043 C 326.90068,610.98691 317.79547,612.45269 316.82672,612.84468 C 316.64538,616.40429 325.20641,617.05219 330.10945,616.99553 C 335.46672,614.19074 341.47408,615.32607 345.45575,618.22893 C 347.40206,618.98292 352.48425,620.91862 346.66543,619.81811 C 341.8347,619.81935 338.82481,622.80586 333.83336,622.78301 C 332.26059,625.10455 328.1588,622.38808 326.10971,623.04963 C 328.26296,630.21505 338.77169,628.42594 342.58573,626.34088 C 346.38994,625.44748 347.04282,629.30264 355.77359,627.85891 C 351.32474,631.6758 345.04983,630.55969 340.87795,632.31811 C 342.46644,638.76419 353.03195,634.92446 357.48137,635.23557 C 358.37263,634.82417 361.32774,633.79736 362.24892,633.57523 C 361.62857,635.71954 361.1226,638.32342 356.96012,640.40053 C 360.7564,641.54934 370.64347,636.39764 371.52311,635.28301 C 372.16344,637.26245 373.20625,640.01144 374.84126,641.45688 C 377.59573,640.565 379.36222,638.17149 379.49275,635.35417 C 379.93714,634.88658 380.866,635.62892 382.31533,637.32286 C 383.17079,640.30011 393.15581,642.50284 393.53223,638.59517 C 391.45283,638.58642 387.75645,634.22993 387.39123,633.36176 C 388.00895,633.07981 389.21186,632.47005 391.28118,632.93481 C 394.78154,635.98945 402.15633,638.50197 405.2992,633.55151 C 405.37381,632.27724 398.76015,631.14228 398.89503,628.87884 C 404.42128,630.23121 406.39952,627.34204 408.57245,625.91394 C 410.01709,624.96448 412.54568,625.23783 414.28877,626.53064 C 418.38621,627.84948 428.91688,628.98843 428.8049,622.78301 C 422.99895,626.83656 418.09074,621.33094 413.86182,619.88927 C 410.22717,618.76375 404.91712,622.82298 401.00603,619.88927 C 405.82364,618.8439 409.16733,616.69366 414.28877,615.33519 C 419.9615,614.67136 424.26205,618.88567 429.63507,616.56859 C 432.41883,617.04079 434.43712,614.95826 435.33455,612.14036 C 427.97457,613.30386 422.33551,607.81808 415.33241,607.03348 C 408.31122,605.66715 404.65688,610.78485 398.53924,610.35417 C 392.59252,612.82916 389.12885,606.12921 388.57719,601.64923 C 385.83682,579.3948 392.65316,578.18368 398.15634,571.33165 C 400.70976,568.15237 410.81512,563.67611 414.28877,563.4851 C 417.75825,563.29432 419.43624,564.04986 422.16353,565.54866 C 421.69588,568.21331 422.44033,570.29656 424.2271,571.88168 C 423.73865,573.66057 426.69167,574.748 424.2271,576.34088 C 423.11839,579.16219 428.43671,585.09849 428.8049,580.06479 C 431.82774,581.43556 427.31495,586.678 431.17681,587.93956 C 432.09232,591.02421 435.54168,586.61655 434.61609,589.83709 C 432.3335,591.8658 437.08448,594.57017 438.74323,595.83804 C 442.10391,597.1866 440.18772,590.14925 442.89408,592.51736 C 441.17429,595.95159 446.68342,597.3555 449.39313,596.21755 C 450.03853,594.46987 449.96289,593.93471 451.71761,595.83804 C 455.92508,597.2474 459.17536,592.29427 455.86846,589.55246 C 455.89038,588.61386 458.19876,587.44542 456.60376,586.08946 C 455.92912,584.85742 456.43989,582.99297 453.99465,583.19572 C 450.58314,581.66453 457.49147,582.87086 454.82482,580.13595 C 452.66347,578.25856 451.05204,577.22189 448.15974,577.45569 C 448.31188,577.13742 451.47866,575.6901 448.80015,574.20616 C 446.71999,571.29783 440.88323,575.76164 441.96903,571.05151 C 440.51616,569.00546 436.41026,567.41008 434.18915,569.29629 C 433.30298,568.27724 435.13501,565.60128 432.74228,565.14544 C 430.17656,562.54448 425.34746,566.57793 423.42065,563.27162 C 422.55205,561.42373 418.15988,560.85432 420.93013,559.33424 C 424.16281,559.07962 426.48264,557.50476 430.08573,556.70142 C 432.99374,556.73253 436.16374,557.85679 437.50983,560.09326 C 436.63155,563.62036 438.66008,566.977 440.83051,563.08187 C 442.40459,564.96101 440.98871,568.79054 444.1512,568.46612 C 444.32406,570.80353 448.15539,570.75367 447.47188,568.46612 C 448.81737,568.86066 448.98128,572.05546 451.52786,571.95284 C 452.91229,574.02049 455.41688,572.53253 455.74987,571.62077 C 457.23102,573.84481 461.79505,572.33317 462.03545,570.55341 C 466.86393,571.69254 465.95066,566.68785 463.62463,564.74221 C 466.28134,561.7569 461.72741,560.85925 459.07055,561.42153 C 459.81366,558.37257 457.65431,556.37067 455.13317,558.50407 C 453.07199,558.49193 455.70134,555.14645 452.66638,554.99364 C 450.49772,553.0943 447.85196,558.89363 447.25841,554.56669 C 445.37588,552.43488 441.9952,555.41893 440.61704,555.20711 C 437.5209,554.71269 434.18846,555.09584 430.74987,554.59041 C 428.61982,553.22064 423.81795,555.84091 423.39693,554.25834 C 426.86827,551.65987 425.03557,547.66977 423.82387,544.62836 C 421.96473,543.02118 423.74005,541.1097 423.39693,538.60369 C 422.74316,538.10956 422.25441,536.64116 420.93013,537.77352 C 423.65471,535.68422 419.76718,530.89696 417.60945,533.21944 C 419.42945,529.70832 413.45112,526.97813 413.03165,531.13216 C 411.24898,530.77518 412.94282,527.91261 411.18156,527.21849 C 410.09529,525.68577 408.42934,528.18016 406.81723,527.05246 C 404.1147,526.87794 404.37823,528.63886 404.96714,530.46802 C 402.64098,533.01636 407.65354,534.60169 408.31154,534.95094 C 406.96709,536.22118 404.86953,536.9674 406.81723,539.03064 C 408.44494,538.76807 411.62541,538.91793 409.18915,540.78586 C 407.44739,542.78071 411.82393,545.38031 414.07529,544.08282 C 416.19042,543.56363 415.1745,547.91487 418.08383,546.66821 C 421.41141,545.40939 422.86523,547.53366 421.7603,550.62931 C 420.14963,551.51947 421.04193,553.73395 419.1512,554.25834 C 417.55988,557.27949 416.65191,556.86471 413.57942,557.42202 C 407.11218,558.5951 400.33035,561.7956 395.22079,565.84232 C 393.66586,567.07381 386.65298,578.23888 386.08668,573.54202 C 385.3091,567.09279 384.79043,560.22144 384.27951,553.73766 C 383.42593,542.90534 385.75493,536.45607 389.72362,530.36185 C 391.43712,527.73066 393.55425,524.79784 395.93805,522.53453 C 398.721,519.89224 401.92141,518.47681 404.75366,516.63975 C 408.01282,514.52578 410.882,513.87611 414.69199,512.89212 C 417.44581,512.18091 422.56488,511.75251 425.27074,512.48889 C 430.54145,513.92328 435.75778,516.55481 439.76315,520.26878 C 441.53231,521.90923 439.03784,525.87066 441.23374,527.40825 C 438.39516,529.12614 444.27325,531.68344 441.25746,532.93481 C 441.2965,535.41231 443.25096,539.22671 445.81154,536.94335 C 444.70143,540.10704 447.59447,541.08393 449.32197,542.13785 C 450.77781,544.60039 453.03481,538.61279 453.25936,542.8257 C 456.03749,545.81894 460.30607,543.19065 463.22141,544.41489 C 467.70223,544.91515 466.51168,539.3734 464.4548,537.3703 C 468.08307,535.70079 464.80068,532.30892 461.98801,533.21944 C 463.17523,531.69693 460.32547,525.67862 457.00698,528.66536 C 458.18075,524.63582 456.7128,523.00139 452.90357,524.08756 C 451.17406,526.60871 449.14663,519.86018 447.13981,523.37599 C 447.03161,518.30737 444.61587,519.69251 442.04019,517.65967 C 439.64694,515.77081 436.78639,514.52641 434.18915,512.89212 C 433.31852,512.34429 428.15613,511.13134 432.05894,509.13886 C 436.41862,506.91469 438.40193,504.5042 441.44947,501.41092 C 443.57717,499.25129 447.48748,501.95242 449.13222,499.20616 C 451.2543,496.36095 453.75264,501.32313 456.95955,499.11128 C 460.26885,498.47938 462.51391,496.12285 459.4975,493.39496 C 461.93895,491.45845 465.84476,493.30971 467.46714,490.19288 C 471.36197,488.12408 463.14112,486.17949 468.13127,485.5202 C 471.32739,484.48167 471.66067,479.57851 468.67681,478.38073 C 472.35161,475.4527 467.9848,468.83429 463.69579,472.11887 C 461.88305,474.60536 462.76323,470.05852 459.90072,471.43102 C 458.53253,473.41395 455.20773,473.50426 456.17681,476.81527 C 453.70458,477.05408 452.15913,474.78933 450.62653,477.66916 C 447.18642,478.91168 448.59141,482.74926 447.47188,484.69003 C 444.30751,481.0676 442.4931,487.08864 443.5345,489.74221 C 441.97618,492.23346 437.87658,494.48274 440.40357,497.97276 C 438.39905,499.75569 436.78793,502.15964 434.61609,503.76024 C 431.75307,505.87023 428.73834,508.68693 425.48421,509.16821 C 422.35633,509.63081 419.19347,507.26713 416.44721,507.50787 C 413.44412,507.77112 413.49259,505.45699 412.81818,504.02115 C 414.71549,500.98902 410.94954,499.48823 412.58099,496.00407 C 412.47488,494.45926 409.08149,491.71674 408.90452,495.05531 C 407.76392,492.80709 409.53734,487.63304 404.84854,488.01071 C 403.9001,488.11939 403.40347,490.87906 402.83241,488.69857 C 404.19744,484.89026 399.95914,483.589 397.28213,484.69003 C 395.25761,480.65741 388.10766,483.30534 389.83431,488.01071 C 391.69589,489.18165 387.51413,491.54917 390.14266,493.60844 C 391.42151,495.83444 395.56456,493.94359 395.09996,496.19383 C 392.38489,499.78995 398.13646,501.32113 401.00603,501.29345 C 397.37313,504.3041 404.33465,505.7845 406.414,503.35701 C 407.28535,505.59421 409.42585,507.89531 411.39503,506.25075 C 410.46725,509.67355 407.36796,510.17857 404.51081,511.5627 C 398.31164,514.56587 393.18217,517.80985 388.57719,522.78301 C 385.60646,525.99125 381.62919,533.89593 381.31913,532.27068 C 378.89319,519.55456 378.38396,500.16879 380.70243,488.22419 C 381.9832,481.62578 386.77151,476.65519 391.37605,472.04772 C 395.46257,467.9586 403.52216,465.04677 405.77359,464.43386 C 407.25549,464.03044 409.21468,463.25077 410.11419,465.12172 C 410.08037,466.68884 409.81857,468.3017 410.30395,469.81811 C 410.75005,470.61033 412.16258,469.65731 412.20148,471.00407 C 414.77768,471.80773 412.55443,473.18555 415.73564,476.45948 C 417.09046,478.18962 417.4361,476.2518 418.62937,475.58187 C 419.25636,476.61328 418.41969,479.11418 419.05632,480.13595 C 420.1697,480.73566 420.89797,482.33964 422.47188,481.79629 C 423.82652,482.46011 425.02867,482.49062 425.88744,480.96612 C 427.30319,481.14711 428.48492,481.75348 429.08953,482.98225 C 430.31351,484.51283 435.45872,484.51934 435.44626,482.19952 C 436.14871,482.24101 437.17206,481.99717 437.27264,482.62646 C 438.49774,482.83586 439.50382,481.59985 440.00034,481.061 C 440.65901,479.14486 439.99405,477.83912 438.52975,476.31717 C 437.10255,475.91704 439.06471,473.78598 437.62843,473.18624 C 436.62638,472.54204 436.12842,471.3287 434.73469,471.92912 C 432.86507,473.20207 433.09364,471.63556 433.02691,470.83804 C 433.52802,469.96416 433.79051,468.58372 432.86087,468.22893 C 432.21696,466.7646 430.7528,466.16386 429.20812,466.44999 C 429.02241,468.03498 426.80471,466.72413 426.4567,467.68339 C 425.70897,467.63434 423.99224,467.99573 425.17586,466.97181 C 426.50739,466.48583 425.72288,464.37501 424.82008,463.95948 C 423.00827,463.95871 420.74569,463.71732 419.48326,465.31147 C 418.69657,465.81003 416.92515,465.40492 416.56581,464.26783 C 416.24241,463.56958 414.96862,464.33783 414.9529,463.55625 C 413.57882,463.53457 412.08484,463.4662 410.92065,464.31527 C 410.23509,463.85147 410.69389,463.43725 410.96808,462.72608 C 414.38893,462.58139 416.77232,460.65345 419.24607,458.93102 C 422.55568,460.93814 425.30569,457.02029 428.89977,458.81242 C 431.88971,460.01162 431.53279,457.58696 432.12558,455.65777 C 434.04404,455.9969 434.79449,458.61211 436.7271,456.13216 C 439.55172,456.15845 440.45705,454.06786 439.5734,451.53064 C 442.14769,451.85784 443.90095,451.44188 446.02501,450.08377 C 447.80897,449.5666 445.85961,446.47548 445.69294,446.66821 C 445.98726,444.34217 450.48805,447.21207 450.79256,444.27257 C 453.12485,442.72624 452.09594,439.03491 449.53545,439.07808 C 451.48978,438.57903 453.28822,439.06081 453.66258,436.80104 C 455.96413,434.46211 454.43196,430.03284 450.86372,429.54297 C 447.31241,428.15311 445.58912,436.35738 444.00888,431.25075 C 442.7179,428.87221 439.23203,431.27227 438.55347,432.86366 C 437.98991,433.99182 436.19964,437.35249 435.32767,434.21565 C 432.30837,433.02775 429.91988,437.32832 430.46524,440.33519 C 427.41871,438.05622 423.85699,441.65811 425.3419,445.22134 C 425.70522,448.40052 420.95377,445.0597 420.93013,448.82665 C 422.02049,451.73485 419.02528,452.78861 418.48706,454.89876 C 418.52325,459.5623 409.00963,460.30167 404.75366,461.46897 C 406.86198,459.75342 409.78335,457.79717 408.61989,455.20711 C 409.18237,453.98722 411.2409,454.73316 412.01173,453.59421 C 413.72328,453.12548 416.18606,450.16379 413.4586,448.61318 C 416.37135,448.3637 418.65972,446.84902 418.43962,443.63216 C 420.60991,442.20887 415.16423,441.74744 417.87036,440.7147 C 421.54783,440.75207 420.30449,434.36802 419.1512,432.86366 C 416.42607,431.47324 418.80744,426.62759 414.88175,426.03254 C 412.52453,425.67523 409.1968,428.84197 411.30015,431.061 C 410.85603,432.48041 409.36591,430.52573 409.30774,429.54297 C 405.83163,429.30114 401.90386,433.0487 404.32672,435.56764 C 404.79902,436.27794 406.21734,439.06919 404.32672,439.07808 C 404.97359,437.2697 401.27693,434.4223 401.43298,437.84468 C 400.10113,439.48917 399.09937,444.61574 402.26315,445.71944 C 402.4058,447.24422 399.58571,444.98316 399.98611,447.78301 C 398.13237,450.05147 401.68088,451.67564 402.26315,453.59421 C 399.10128,453.25063 401.67498,457.4789 400.60281,458.97846 C 404.38806,461.74235 397.56929,463.58475 395.24228,465.07428 C 391.72526,467.32554 385.96133,472.06135 383.59617,474.6331 C 380.67807,477.8061 379.15238,481.08191 377.78497,483.31432 C 377.02864,477.49619 377.38175,471.50369 377.38175,465.61982 C 376.38001,464.8841 378.13813,464.22618 377.02596,463.03443 C 377.12784,462.33878 377.9341,461.22944 379.04209,460.6388 C 379.44165,458.50502 382.33167,456.51282 379.96714,454.87504 C 379.59229,452.38649 383.38496,454.83989 382.67112,452.17106 C 384.11318,451.57972 385.42211,448.34423 382.57624,448.58946 C 380.12438,448.54882 382.95314,446.18816 383.78592,445.26878 C 381.0429,440.21984 383.65327,437.69136 384.42634,435.35417 C 383.5377,434.9123 381.2841,435.19858 381.45744,434.35088 C 381.67607,433.28162 384.35234,430.99916 382.81344,429.78016 C 380.56415,427.77043 380.19812,425.95451 377.52406,425.55815 C 376.17713,423.28397 374.13986,422.55081 372.4956,424.77542 z"
       id="path5000"
       style="opacity:1;fill:#eed81b;fill-opacity:1;fill-rule:evenodd;stroke:none" />
  </g>
</svg>
