<?xml version="1.0" encoding="UTF-8" standalone="no"?>
<!-- Created with Inkscape (http://www.inkscape.org/) -->

<svg
   xmlns:dc="http://purl.org/dc/elements/1.1/"
   xmlns:cc="http://creativecommons.org/ns#"
   xmlns:rdf="http://www.w3.org/1999/02/22-rdf-syntax-ns#"
   xmlns:svg="http://www.w3.org/2000/svg"
   xmlns="http://www.w3.org/2000/svg"
   version="1.1"
   width="390"
   height="480"
   id="svg4228">
  <metadata
     id="metadata13">
    <rdf:RDF>
      <cc:Work
         rdf:about="">
        <dc:format>image/svg+xml</dc:format>
        <dc:type
           rdf:resource="http://purl.org/dc/dcmitype/StillImage" />
        <dc:title></dc:title>
      </cc:Work>
    </rdf:RDF>
  </metadata>
  <defs
     id="defs4232" />
  <path
     d="M 0,0 C 130,0 260,0 390,0 389.98981,114.99797 370.78556,350.14732 194.88837,479.99815 20.79131,350.08886 0.081386,115.02225 0,0 z"
     id="path4240-0"
     style="fill:#d61a1a;fill-opacity:1;stroke:none" />
  <path
     d="m 29.015761,70.650194 c -0.006,-0.02287 6.333558,-2.364197 6.461493,-2.19447 16.19241,21.481922 46.275935,23.323184 48.40024,44.824066 1.533249,15.51858 -13.463916,18.77253 -13.070503,34.35163 0.07277,2.8816 0.190795,6.24074 3.675768,7.54099 -5.188554,-16.28113 9.352545,-29.93008 20.45977,-28.04597 28.476711,4.83048 33.860481,42.34046 13.448271,54.02298 -12.830852,7.34349 -21.616416,0.14721 -26.321834,-6.43678 -1.16145,-1.62514 -2.137848,1.62819 -1.609196,2.64368 11.963044,24.74828 28.8908,66.27008 38.0085,83.56086 5.13837,0.008 45.37349,0.0106 50.79296,2.1e-4 0.82494,-0.002 12.48311,-60.72375 13.72728,-97.58402 0.16554,-4.9044 -3.39628,-4.29186 -5.4023,0.45977 -6.21501,14.72142 -30.93855,21.25072 -43.67816,10.34483 -17.14379,-14.67614 -12.21487,-53.97768 16.43678,-54.71264 14.43942,-0.37039 22.35762,7.86858 27.47126,16.89655 0.4724,0.834 1.93451,0.56585 3.81444,0.54633 0.084,-2.36865 0.0361,-9.74173 0.0361,-9.74173 -5.96879,-2.54079 -24.66132,-10.8103 -23.27587,-30.344832 2.01365,-28.392151 23.06514,-39.08046 31.14943,-72.413793 l 12.52874,0 c 6.55784,33.10368 27.46044,39.378171 30.11494,72.528736 1.58333,19.773319 -15.93436,27.929529 -21.83908,30.459769 l -0.0375,9.47503 c 1.18786,-0.26443 2.89686,0.41375 3.54323,-0.85434 4.57207,-8.9698 11.25058,-15.87192 24.77015,-15.97701 27.56916,-0.21431 39.27215,35.26669 20.68966,52.87356 -13.81667,13.09127 -39.83853,6.38012 -45.17242,-8.27586 -2.07831,-5.71059 -5.77597,-6.04379 -5.63218,-1.26437 1.11644,37.10869 12.78946,97.4846 13.06209,97.58636 8.55114,-0.0127 40.75316,-0.0106 51.01846,-0.004 5.43561,-9.16926 31.65437,-68.2884 37.56536,-82.28913 1.20417,-2.40045 -1.59105,-5.95617 -2.50478,-2.95878 -3.48935,11.44638 -18.89061,7.31897 -21.14672,6.12857 -23.32094,-12.30491 -19.0505,-52.59851 12.35042,-55.35922 8.37202,-0.73605 21.8782,11.60445 18.96551,28.16092 2.353,-0.94187 2.98156,-5.48248 2.88793,-8.59196 -0.43997,-14.61227 -14.89034,-18.75153 -13.57758,-31.2931 2.30633,-22.033705 32.72031,-23.984673 48.73563,-46.321836 l 6.89655,2.528735 C 335.73274,157.6393 298.98334,247.09635 291.89653,339.56897 L 99.28159,339.54027 C 91.478728,244.74502 56.984067,161.7464 29.015761,70.650194 z"
     id="path3783"
     style="fill:#faf700;fill-opacity:1;stroke:none" />
</svg>
