<?xml version="1.0" encoding="utf-8"?>
<!-- Generator: Adobe Illustrator 15.0.0, SVG Export Plug-In . SVG Version: 6.00 Build 0)  -->
<!DOCTYPE svg PUBLIC "-//W3C//DTD SVG 1.1//EN" "http://www.w3.org/Graphics/SVG/1.1/DTD/svg11.dtd">
<svg version="1.1" id="Layer_1" xmlns="http://www.w3.org/2000/svg" xmlns:xlink="http://www.w3.org/1999/xlink" x="0px" y="0px"
	 width="841.89px" height="595.28px" viewBox="0 0 841.89 595.28" enable-background="new 0 0 841.89 595.28" xml:space="preserve">
<path fill="#3C3738" d="M743.834,195.509l-90.323,18.983l0,0v23.136h-35.396v-12.829v-10.002c0-8-85.817-73.264-192.65-74.088
	V118.29c0-2.64-2.149-4.77-4.79-4.77c-2.63,0-4.77,2.13-4.77,4.77v22.429c-106.833,0.952-192.651,64.979-192.651,74.079v22.831
	h-35.396v-23.136l-89.96-18.993L7.585,214.492v268.152h144.879h35.395h35.396h9.089h376.685h9.088h35.396h35.396h144.878V214.492
	L743.834,195.509z M76.049,325.242H52.59v-37.31c0-6.469,5.261-11.72,11.729-11.72s11.729,5.251,11.729,11.72V325.242z
	 M109.736,325.242H86.297v-37.31c0-6.469,5.241-11.72,11.72-11.72c6.478,0,11.72,5.251,11.72,11.72V325.242z M143.443,325.242
	h-23.46v-37.31c0-6.469,5.262-11.72,11.73-11.72c6.478,0,11.73,5.251,11.73,11.72V325.242z M590.043,241.083v49.48
	c-5.016-4.25-10.649-8.285-16.834-12.083V229C579.394,232.798,585.027,236.843,590.043,241.083z M541.034,213.207v49.471
	c-15.567-6.066-32.961-10.984-51.689-14.517v-49.471C508.073,202.203,525.467,207.131,541.034,213.207z M251.719,290.22v-49.48
	c5.045-4.211,10.68-8.216,16.844-11.985v49.48C262.398,282.004,256.764,286.009,251.719,290.22z M300.532,262.608v-49.49
	c15.568-6.056,32.961-10.964,51.689-14.468v49.49C333.493,251.635,316.1,256.552,300.532,262.608z M457.042,243.645
	c-11.788-1.109-23.931-1.698-36.367-1.698c-12.387,0-24.5,0.569-36.278,1.688v-49.49c11.779-1.109,23.891-1.679,36.278-1.679
	c12.437,0,24.579,0.579,36.367,1.688V243.645z M251.719,419.227v-84.571c5.045-4.221,10.68-8.226,16.844-12.005v96.576H251.719z
	 M300.532,419.227V307.034c15.568-6.066,32.961-10.974,51.689-14.488v126.681H300.532z M384.396,418.127V288.061
	c11.779-1.109,23.891-1.688,36.278-1.688c12.437,0,24.579,0.579,36.367,1.688v130.066H384.396z M489.345,420.326V292.595
	c18.729,3.524,36.122,8.442,51.689,14.518v113.214H489.345z M573.209,419.227v-96.32c6.185,3.798,11.818,7.842,16.834,12.082v84.238
	H573.209z M723.859,325.242H700.4v-37.31c0-6.469,5.251-11.72,11.729-11.72c6.468,0,11.729,5.251,11.729,11.72V325.242z
	 M757.547,325.242h-23.439v-37.31c0-6.469,5.241-11.72,11.719-11.72c6.479,0,11.721,5.251,11.721,11.72V325.242z M791.244,325.242
	h-23.45v-37.31c0-6.469,5.251-11.72,11.72-11.72c6.479,0,11.73,5.251,11.73,11.72V325.242z"/>
</svg>
